<?xml version="1.0" encoding="UTF-8" standalone="no"?><!DOCTYPE svg PUBLIC "-//W3C//DTD SVG 1.1//EN" "http://www.w3.org/Graphics/SVG/1.1/DTD/svg11.dtd"><svg width="259" height="254" viewBox="0 0 259 254" xmlns="http://www.w3.org/2000/svg" xmlns:xlink="http://www.w3.org/1999/xlink"><svg viewBox="-2 -2 20 20" fill-rule="evenodd" clip-rule="evenodd" stroke-linejoin="round" stroke-miterlimit="1.414" width="20" height="20" id="13" x="78" y="214"><path d="M1.191 2.496H14.81v1.06H1.191zM2.326 0h11.349v1.06H2.326zM16 16H0V4.992h16V16zm-7.37-1.92v-1.06H1.821v1.06H8.63zm0-2.385v-1.061H1.821v1.061H8.63zm5.675-.265V7.189H10.9v4.241h3.405zM8.63 9.309v-2.12H1.821v2.12H8.63z"/></svg><svg viewBox="-2 -2 20 20" fill-rule="evenodd" clip-rule="evenodd" stroke-linejoin="round" stroke-miterlimit="1.414" width="20" height="20" id="14" x="18" y="214"><path d="M1.191 2.496H14.81v1.06H1.191zM2.326 0h11.349v1.06H2.326zM0 4.992h16V16H0z"/></svg><svg viewBox="-2 -2 18 17" fill-rule="evenodd" clip-rule="evenodd" stroke-linejoin="round" stroke-miterlimit="1.414" width="18" height="17" id="32" x="241" y="119"><path d="M2.033 3.431v.933h-.875v7.037h8.731V9.792h1.158v2.542H0V3.431h2.033zm.919 0h.001V0H14v8.902h-2.953v.006H9.889v-.006H2.953V4.364h-.001v-.933zm8.095 4.532v.006h1.795V.933H4.111v1.56H4.11v2.64h.001v2.836h5.778v-.006h1.158zm0-.919H9.889v-2.68H5.03v-.933h6.017v3.613z"/></svg><svg viewBox="-2 -2 19 19" fill-rule="evenodd" clip-rule="evenodd" stroke-linejoin="round" stroke-miterlimit="1.414" width="19" height="19" id="activity" x="117" y="234"><g fill="#fff"><path d="M7.896 10.68h7v2h-7zM6.448 10.751l-3.586 3.488L0 11.445l1.417-1.379 1.35 1.317 2.168-2.109 1.513 1.477zM7.896 6.043h7v2h-7zM6.448 6.114L2.862 9.601 0 6.807l1.417-1.378 1.35 1.317 2.168-2.109 1.513 1.477z"/><g><path d="M7.896 1.406h7v2h-7zM6.448 1.477L2.862 4.964 0 2.17 1.417.792l1.35 1.317L4.935 0l1.513 1.477z"/></g></g></svg><svg viewBox="-2 -2 18 16" fill-rule="evenodd" clip-rule="evenodd" stroke-linejoin="round" stroke-miterlimit="1.414" width="18" height="16" id="activity-big" x="241" y="56"><g fill="#fff"><path d="M5.82 9.034H14v2.328H5.82zM4.656 9.507l-2.589 2.398L0 9.984l1.023-.948.975.905 1.565-1.45 1.093 1.016zM5.82 4.789H14v2.328H5.82zM4.656 5.261L2.067 7.659 0 5.738l1.023-.948.975.906 1.565-1.45 1.093 1.015z"/><g><path d="M5.82.543H14v2.328H5.82zM4.656 1.015L2.067 3.414 0 1.492 1.023.545l.975.905L3.563 0l1.093 1.015z"/></g></g></svg><svg viewBox="-2 -2 19 19" fill-rule="evenodd" clip-rule="evenodd" stroke-linejoin="round" stroke-miterlimit="1.414" width="19" height="19" id="activity-gray" x="136" y="234"><g fill="#dfdfdf"><path d="M7.896 10.68h7v2h-7zM6.448 10.751l-3.586 3.488L0 11.445l1.417-1.379 1.35 1.317 2.168-2.109 1.513 1.477zM7.896 6.043h7v2h-7zM6.448 6.114L2.862 9.601 0 6.807l1.417-1.378 1.35 1.317 2.168-2.109 1.513 1.477z"/><g><path d="M7.896 1.406h7v2h-7zM6.448 1.477L2.862 4.964 0 2.17 1.417.792l1.35 1.317L4.935 0l1.513 1.477z"/></g></g></svg><svg viewBox="-2 -2 17 17" fill-rule="evenodd" clip-rule="evenodd" stroke-linejoin="round" stroke-miterlimit="1.414" width="17" height="17" id="add" x="241" y="136"><path d="M5.665 5.665V.802a.802.802 0 1 1 1.604 0v4.863h4.863a.803.803 0 0 1 0 1.604H7.269v4.863a.803.803 0 0 1-1.604 0V7.269H.802a.803.803 0 0 1 0-1.604h4.863z" fill="#fff"/></svg><svg viewBox="-2 -2 30 30" fill-rule="evenodd" clip-rule="evenodd" stroke-linejoin="round" stroke-miterlimit="1.414" width="30" height="30" id="add-big" x="31" y="183"><path d="M11.33 11.33V1.604a1.604 1.604 0 0 1 3.208 0v9.726h9.725a1.604 1.604 0 1 1 0 3.208h-9.725v9.725a1.604 1.604 0 0 1-3.208 0v-9.725H1.604a1.605 1.605 0 0 1 0-3.208h9.726z" fill="#fff"/></svg><svg viewBox="-2 -2 17 17" fill-rule="evenodd" clip-rule="evenodd" stroke-linejoin="round" stroke-miterlimit="1.414" width="17" height="17" id="add-black" x="241" y="170"><path d="M5.665 5.665V.802a.802.802 0 1 1 1.604 0v4.863h4.863a.803.803 0 0 1 0 1.604H7.269v4.863a.803.803 0 0 1-1.604 0V7.269H.802a.803.803 0 0 1 0-1.604h4.863z"/></svg><svg width="17" height="29" clip-rule="evenodd" viewBox="-2 -2 17 29" id="arrow-down" x="190" y="98"><title>background</title><path fill="none" d="M-1-1h15v27H-1z"/><g><title>Layer 1</title><path fill="#535c69" d="M12.439 23.707a1 1 0 0 0-1-1h-10a1 1 0 0 0 0 2h10a1 1 0 0 0 1-1zm-7-6.021V1.293a1 1 0 0 1 2 0v16.198l3.976-3.975a.76.76 0 1 1 1.075 1.075l-5.377 5.377a.762.762 0 0 1-.243.164l-.03.031a.76.76 0 0 1-1.075 0L.388 14.785a.76.76 0 1 1 1.075-1.075l3.976 3.976z"/></g></svg><svg viewBox="-2 -2 21 18" fill-rule="evenodd" clip-rule="evenodd" stroke-linejoin="round" stroke-miterlimit="1.414" width="21" height="18" id="arrow-right" x="219" y="138"><path d="M9.646 4.949L8.111 3.414A2 2 0 0 1 10.939.585l4.95 4.95c.39.39.585.901.585 1.412v.005a1.99 1.99 0 0 1-.585 1.412l-4.95 4.949a2 2 0 1 1-2.828-2.828l1.535-1.536H2a2 2 0 0 1 0-4h7.646z" fill="#fff"/></svg><svg viewBox="-2 -2 17 22" fill-rule="evenodd" clip-rule="evenodd" stroke-linejoin="round" stroke-miterlimit="1.414" width="17" height="22" id="arrows-2-right" x="219" y="76"><path d="M5.483 8.679c-.002-.376.14-.753.426-1.04L7.028 6.52H1.457a1.458 1.458 0 0 1 0-2.914h5.571L5.909 2.487A1.458 1.458 0 0 1 7.97.427l3.607 3.606c.283.284.426.656.426 1.028v.004c0 .372-.143.745-.426 1.029L8.991 8.679l2.586 2.585c.283.284.426.657.426 1.029v.004c0 .372-.143.744-.426 1.028L7.97 16.931a1.458 1.458 0 0 1-2.061-2.06l1.119-1.119H1.457a1.458 1.458 0 0 1 0-2.914h5.571L5.909 9.719a1.458 1.458 0 0 1-.426-1.04z" fill="#fff"/></svg><svg width="22" height="20" viewBox="-2 -2 30 28" fill-rule="evenodd" clip-rule="evenodd" stroke-linecap="round" stroke-linejoin="round" stroke-miterlimit="1.414" id="attach" x="219" y="56"><path d="M13.32 3.067l-8.884 8.884a4.437 4.437 0 0 0 0 6.274l1.001 1a3.647 3.647 0 0 0 5.159 0L22.168 7.653a2.486 2.486 0 0 0 0-3.516l-1.08-1.08a2.486 2.486 0 0 0-3.516 0L7.309 13.32a2 2 0 1 0 2.829 2.828l7.424-7.424" fill="none" stroke-width="1.5" stroke="#fff"/></svg><svg viewBox="-2 -2 30 28" fill-rule="evenodd" clip-rule="evenodd" stroke-linecap="round" stroke-linejoin="round" stroke-miterlimit="1.414" width="30" height="28" id="attach-gray" x="148" y="118"><path d="M13.32 3.067l-8.884 8.884a4.437 4.437 0 0 0 0 6.274l1.001 1a3.647 3.647 0 0 0 5.159 0L22.168 7.653a2.486 2.486 0 0 0 0-3.516l-1.08-1.08a2.486 2.486 0 0 0-3.516 0L7.309 13.32a2 2 0 1 0 2.829 2.828l7.424-7.424" fill="none" stroke-width="1.5" stroke="#dfdfdf"/></svg><svg viewBox="-2 -2 18 17" fill-rule="evenodd" clip-rule="evenodd" stroke-linejoin="round" stroke-miterlimit="1.414" width="18" height="17" id="b24" x="241" y="87"><path d="M2.033 3.431v.933h-.875v7.037h8.731V9.792h1.158v2.542H0V3.431h2.033zm.919 0h.001V0H14v8.902h-2.953v.006H9.889v-.006H2.953V4.364h-.001v-.933zm8.095 4.532v.006h1.795V.933H4.111v1.56H4.11v2.64h.001v2.836h5.778v-.006h1.158zm0-.919H9.889v-2.68H5.03v-.933h6.017v3.613z" fill="#87ad26"/></svg><svg viewBox="-2 -2 19 20" fill-rule="evenodd" clip-rule="evenodd" stroke-linejoin="round" stroke-miterlimit="1.414" width="19" height="20" id="basket-trash" x="79" y="234"><g fill="#535c69"><path d="M1.697 3.721H.293A.293.293 0 0 1 0 3.428V2.161c0-.162.131-.293.293-.293h13.674c.162 0 .293.131.293.293v1.267a.293.293 0 0 1-.293.293h-1.33v11.68a.598.598 0 0 1-.599.599H2.297a.597.597 0 0 1-.6-.599V3.721zm1.261 0v10.078a.6.6 0 0 0 .599.599h7.22a.599.599 0 0 0 .599-.599V3.721H2.958zm2.403-1.853h-.53V.272c0-.072.027-.141.074-.192A.242.242 0 0 1 5.083 0h4.094c.067 0 .131.029.178.08.047.051.074.12.074.192v1.596h-.53V1c0-.151-.113-.272-.252-.272H5.613c-.139 0-.252.121-.252.272v.868z"/><path d="M6.734 4.536h.792v8.638h-.792zM9.22 4.536h.792v8.638H9.22zM4.247 4.536h.792v8.638h-.792z"/></g></svg><svg viewBox="-2 -2 26 28" fill-rule="evenodd" clip-rule="evenodd" stroke-linejoin="round" stroke-miterlimit="1.414" width="26" height="28" id="basket-trash-big" x="61" y="183"><path d="M2.546 5.582H.44a.44.44 0 0 1-.44-.44V3.241a.44.44 0 0 1 .44-.439h20.51a.44.44 0 0 1 .44.439v1.901a.44.44 0 0 1-.44.44h-1.994v17.519a.898.898 0 0 1-.899.899H3.445a.902.902 0 0 1-.899-.899V5.582zm1.891 0v15.117c0 .496.403.898.899.898h10.829a.898.898 0 0 0 .899-.898V5.582H4.437zm5.664 1.223h1.188v12.956h-1.188V6.805zm3.73 0h1.188v12.956h-1.188V6.805zm-6.272 0v12.956H6.371V6.805h1.188zm.482-4.003h-.794V.408c0-.108.039-.212.11-.288A.363.363 0 0 1 7.624 0h6.141c.1 0 .197.043.267.12.071.076.111.18.111.288v2.394h-.795V1.5c0-.226-.169-.409-.378-.409H8.419c-.208 0-.378.183-.378.409v1.302z" fill="#535c69"/></svg><svg viewBox="-2 -2 20 21" fill-rule="evenodd" clip-rule="evenodd" stroke-linejoin="round" stroke-miterlimit="1.414" width="20" height="21" id="calendar" x="219" y="156"><path d="M2.366 12h2v2h-2v-2zm3 0h2v2h-2v-2zm5 0v2h-2v-2h2zm-8-3h2v2h-2V9zm3 0h2v2h-2V9zm3 0h2v2h-2V9zm3 0h2v2h-2V9zm-6-3h2v2h-2V6zm3 0h2v2h-2V6zm3 0h2v2h-2V6z" fill="#bababa"/><path d="M.866 3.5c.077.163 0 12 0 12h14s.024-11.963 0-12c-.023-.037-14.076-.163-14 0zM.89 3.25a3.564 3.564 0 0 0-.019-.419c-.077-.163 13.976-.037 14 0 .002.004.004.155.006.419H.89z" fill="none" stroke="#bababa"/><path d="M5.366 3h-1V1.358A.357.357 0 0 0 4.008 1h-.352a.292.292 0 0 0-.29.29V3h-1V.49c0-.271.22-.49.49-.49h1.993c.286 0 .517.232.517.517V3zM13.366 3h-1V1.358A.357.357 0 0 0 12.008 1h-.352a.292.292 0 0 0-.29.29V3h-1V.49c0-.271.22-.49.49-.49h1.993c.286 0 .517.232.517.517V3z" fill="#bababa"/></svg><svg viewBox="-2 -2 13 13" fill-rule="evenodd" clip-rule="evenodd" stroke-linejoin="round" stroke-miterlimit="1.414" width="13" height="13" id="cancel" x="241" y="220"><path d="M4.354 2.726L6.743.337A1.151 1.151 0 0 1 8.37 1.964l-2.389 2.39L8.37 6.743a1.15 1.15 0 0 1 0 1.627 1.15 1.15 0 0 1-1.627 0L4.354 5.981 1.964 8.37A1.151 1.151 0 0 1 .337 6.743l2.389-2.389-2.389-2.39A1.151 1.151 0 0 1 1.964.337l2.39 2.389z" fill="#fff"/></svg><svg viewBox="-9 -9 27 27" fill-rule="evenodd" clip-rule="evenodd" stroke-linejoin="round" stroke-miterlimit="1.414" width="27" height="27" id="cancel-white-23canvas" x="190" y="156"><path d="M4.354 2.726L6.743.337A1.151 1.151 0 0 1 8.37 1.964l-2.389 2.39L8.37 6.743a1.15 1.15 0 0 1 0 1.627 1.15 1.15 0 0 1-1.627 0L4.354 5.981 1.964 8.37A1.151 1.151 0 0 1 .337 6.743l2.389-2.389-2.389-2.39A1.151 1.151 0 0 1 1.964.337l2.39 2.389z" fill="#fff"/></svg><svg viewBox="-2 -2 14 15" fill-rule="evenodd" clip-rule="evenodd" stroke-linecap="round" stroke-linejoin="round" stroke-miterlimit="1.414" width="14" height="15" id="cards" x="85" y="44"><g fill="none" stroke="#aeaeae"><path d="M2.866 7.559v2h6.148V2.866l-2-.014"/><path d="M.866.866h6.148v6.693H.866z"/></g></svg><svg viewBox="-2 -2 19 20" fill-rule="evenodd" clip-rule="evenodd" stroke-linejoin="round" stroke-miterlimit="1.414" width="19" height="20" id="cart" x="40" y="234"><g fill="#fff"><circle cx="3.783" cy="13.533" r="2"/><path d="M2.801 2.926a.26.26 0 0 0 .259.259h10.844a.32.32 0 0 1 .308.414L12.94 7.817a.433.433 0 0 1-.415.308H3.548a.253.253 0 0 0-.253.253v.494c0 .14.113.253.253.253h8.657a.254.254 0 0 1 .242.326l-.099.329a.252.252 0 0 1-.242.18H2.242a.472.472 0 0 1-.472-.473v-5.81h-.003v-2.24a.402.402 0 0 0-.403-.403H.403A.404.404 0 0 1 0 .631V.403C0 .181.181 0 .403 0h1.995c.222 0 .403.181.403.403v2.523z"/><circle cx="9.952" cy="13.533" r="2"/></g></svg><svg viewBox="-2 -2 24 17" fill-rule="evenodd" clip-rule="evenodd" stroke-linejoin="round" stroke-miterlimit="1.414" width="24" height="17" id="check" x="105" y="86"><path d="M8.051 8.746L16.3.497a1.698 1.698 0 0 1 2.401 2.401l-9.45 9.449a1.689 1.689 0 0 1-1.198.497h-.002-.002a1.69 1.69 0 0 1-1.199-.497L.497 5.994a1.698 1.698 0 0 1 2.401-2.401l5.153 5.153z" fill="#fff"/></svg><svg viewBox="-2 -2 19 19" fill-rule="evenodd" clip-rule="evenodd" stroke-linejoin="round" stroke-miterlimit="1.414" width="19" height="19" id="check-all" x="155" y="234"><path d="M7.896 10.68h7v2h-7zM6.448 10.751l-3.586 3.488L0 11.445l1.417-1.379 1.35 1.317 2.168-2.109 1.513 1.477zM7.896 6.043h7v2h-7zM6.448 6.114L2.862 9.601 0 6.807l1.417-1.378 1.35 1.317 2.168-2.109 1.513 1.477z"/><g><path d="M7.896 1.406h7v2h-7zM6.448 1.477L2.862 4.964 0 2.17 1.417.792l1.35 1.317L4.935 0l1.513 1.477z"/></g></svg><svg viewBox="-2 -2 18 16" fill-rule="evenodd" clip-rule="evenodd" stroke-linejoin="round" stroke-miterlimit="1.414" width="18" height="16" id="check-all-big" x="241" y="40"><path d="M5.82 9.034H14v2.328H5.82zM4.656 9.507l-2.589 2.398L0 9.984l1.023-.948.975.905 1.565-1.45 1.093 1.016zM5.82 4.789H14v2.328H5.82zM4.656 5.261L2.067 7.659 0 5.738l1.023-.948.975.906 1.565-1.45 1.093 1.015z"/><g><path d="M5.82.543H14v2.328H5.82zM4.656 1.015L2.067 3.414 0 1.492 1.023.545l.975.905L3.563 0l1.093 1.015z"/></g></svg><svg viewBox="-2 -2 61 61" fill-rule="evenodd" clip-rule="evenodd" stroke-linecap="round" stroke-linejoin="round" stroke-miterlimit="1.414" width="61" height="61" id="circle-dashed"><circle cx="29.048" cy="29.048" r="27.316" fill="none" stroke-width="2" stroke-dasharray="4,6,4,0" stroke-dashoffset="10" stroke="#535c69"/></svg><svg viewBox="-2 -2 40 40" fill-rule="evenodd" clip-rule="evenodd" stroke-linejoin="round" stroke-miterlimit="1.414" width="40" height="40" id="circle-fill" x="148" y="41"><circle cx="18" cy="18" r="18" fill="#fff"/></svg><svg viewBox="-2 -2 44 44" fill-rule="evenodd" clip-rule="evenodd" stroke-linecap="round" stroke-linejoin="round" stroke-miterlimit="1.414" width="44" height="44" id="circle-solid" y="61"><circle cx="19.598" cy="19.598" r="17" fill="none" stroke-width="3" stroke="#fff"/></svg><svg viewBox="-2 -2 44 44" fill-rule="evenodd" clip-rule="evenodd" stroke-linecap="round" stroke-linejoin="round" stroke-miterlimit="1.414" width="44" height="44" id="circle-solid-gray" x="61"><circle cx="19.598" cy="19.598" r="17" fill="none" stroke-width="3" stroke="#dfdfdf"/></svg><svg viewBox="-2 -2 21 21" fill-rule="evenodd" clip-rule="evenodd" stroke-linecap="round" stroke-linejoin="round" stroke-miterlimit="1.414" width="21" height="21" id="clock" x="219" y="117"><circle cx="8.299" cy="8.299" r="7" fill="none" stroke-width="1.5" stroke="#fff"/><path d="M7.658 3.367H8.94v4.609l2.16 1.726-.905 1.131-2.448-1.957h-.089V3.367z" fill="#fff"/></svg><svg viewBox="-2 -2 18 20" fill-rule="evenodd" clip-rule="evenodd" stroke-linejoin="round" stroke-miterlimit="1.414" width="18" height="20" id="contacts" x="241" y="20"><path d="M13.965 15.333H.035A6.372 6.372 0 0 1 0 14.667C0 10.987 3.137 8 7 8s7 2.987 7 6.667c0 .225-.012.447-.035.666zM7 0a3.669 3.669 0 0 1 3.667 3.667A3.668 3.668 0 0 1 7 7.333a3.668 3.668 0 0 1-3.667-3.666A3.669 3.669 0 0 1 7 0z" fill="#fff"/></svg><svg viewBox="-2 -2 18 20" fill-rule="evenodd" clip-rule="evenodd" stroke-linejoin="round" stroke-miterlimit="1.414" width="18" height="20" id="contacts-gray" y="214"><path d="M13.965 15.333H.035A6.372 6.372 0 0 1 0 14.667C0 10.987 3.137 8 7 8s7 2.987 7 6.667c0 .225-.012.447-.035.666zM7 0a3.669 3.669 0 0 1 3.667 3.667A3.668 3.668 0 0 1 7 7.333a3.668 3.668 0 0 1-3.667-3.666A3.669 3.669 0 0 1 7 0z" fill="#dfdfdf"/></svg><svg width="29" height="29" viewBox="-2 -2 29 29" fill-rule="evenodd" clip-rule="evenodd" stroke-linejoin="round" stroke-miterlimit="1.414" id="done" x="190" y="69"><path d="M12.207 0c6.737 0 12.207 5.47 12.207 12.207 0 6.737-5.47 12.207-12.207 12.207C5.47 24.414 0 18.944 0 12.207 0 5.47 5.47 0 12.207 0zm0 1.423c5.952 0 10.784 4.832 10.784 10.784 0 5.952-4.832 10.784-10.784 10.784-5.952 0-10.784-4.832-10.784-10.784 0-5.952 4.832-10.784 10.784-10.784zm-1.983 13.631l7.464-7.464a.776.776 0 1 1 1.099 1.098l-7.797 7.797a.778.778 0 0 1-1.271.261l-4.092-4.092a.778.778 0 0 1 1.099-1.099l3.498 3.499z" fill="#535c69"/></svg><svg viewBox="-2 -2 29 35" fill-rule="evenodd" clip-rule="evenodd" stroke-linecap="round" stroke-linejoin="round" stroke-miterlimit="1.414" width="29" height="35" id="file-attach" x="190"><g fill="none" stroke-width="1.5" stroke="#89b117"><path d="M16.299 1.299v7h7l-7-7z"/><path d="M16.299 1.299h-11.7a3.302 3.302 0 0 0-3.3 3.3v21.4c0 1.821 1.479 3.3 3.3 3.3h15.4c1.821 0 3.3-1.479 3.3-3.3v-17.7"/></g></svg><svg viewBox="-2 -2 16 20" fill-rule="evenodd" clip-rule="evenodd" stroke-linejoin="round" stroke-miterlimit="1.414" width="16" height="20" id="handset" x="98" y="214"><path d="M5.296 9.556c-.895-1.274-1.344-2.665-1.565-3.447l-.145-.657c.138-.084 1.187-.727 1.668-1.1.605-.468.113-1.178.113-1.178S4.067.877 3.757.406c-.311-.47-.838-.403-.838-.403C1.903.321.876.558.178 2.87-.428 5.048.603 7.754 1.91 9.989c1.247 2.461 3.161 5.112 5.539 5.768 2.342.592 3.073-.167 3.868-.874 0 0 .329-.416.086-.925-.243-.509-1.544-2.806-1.544-2.806s-.355-.787-1.068-.51c-.532.207-1.525.72-1.765.845.001.001-1.126-1.071-1.73-1.931z" fill="#fff" fill-rule="nonzero"/></svg><svg viewBox="-2 -2 16 20" fill-rule="evenodd" clip-rule="evenodd" stroke-linejoin="round" stroke-miterlimit="1.414" width="16" height="20" id="handset-gray" x="194" y="214"><path d="M5.296 9.556c-.895-1.274-1.344-2.665-1.565-3.447l-.145-.657c.138-.084 1.187-.727 1.668-1.1.605-.468.113-1.178.113-1.178S4.067.877 3.757.406c-.311-.47-.838-.403-.838-.403C1.903.321.876.558.178 2.87-.428 5.048.603 7.754 1.91 9.989c1.247 2.461 3.161 5.112 5.539 5.768 2.342.592 3.073-.167 3.868-.874 0 0 .329-.416.086-.925-.243-.509-1.544-2.806-1.544-2.806s-.355-.787-1.068-.51c-.532.207-1.525.72-1.765.845.001.001-1.126-1.071-1.73-1.931z" fill="#9fa3a6" fill-rule="nonzero"/></svg><svg preserveAspectRatio="xMidYMid" width="22" height="19" viewBox="-2 -2 22 19" id="i-gray" x="219" y="98"><defs><style>.bkcls-1{fill:#d7dada;fill-rule:evenodd}</style></defs><path d="M17.407 10.194l-5.414-8.447C11.282.639 10.196.005 9.009.005S6.735.639 6.025 1.746L.611 10.194c-.72 1.122-.799 2.319-.215 3.283.582.964 1.72 1.518 3.119 1.518h10.989c1.398 0 2.536-.554 3.119-1.518.583-.964.504-2.16-.216-3.283zM9.009 4.238c.782.001 1.418.598 1.42 1.328 0 .731-.636 1.328-1.419 1.329-.782-.001-1.419-.598-1.421-1.328 0-.733.637-1.329 1.42-1.329zm1.547 7.252a2.689 2.689 0 0 1-2.034.783c-.465-.026-.85-.219-1.085-.544-.289-.398-.328-.953-.111-1.563l.372-1.047c.206-.586.009-.679-.097-.729a.311.311 0 0 0-.129-.021c-.23 0-.546.127-.648.176a.24.24 0 0 1-.284-.057.205.205 0 0 1 .006-.273c.03-.033.794-.853 2.036-.783.462.025.847.217 1.082.541.29.398.33.955.113 1.567l-.371 1.046c-.208.585-.01.679.097.729a.32.32 0 0 0 .125.019c.232 0 .549-.126.653-.176a.239.239 0 0 1 .283.059.206.206 0 0 1-.008.273z" class="bkcls-1"/></svg><svg preserveAspectRatio="xMidYMid" width="22" height="19" viewBox="-2 -2 22 19" id="i-white" x="219"><defs><style>.blcls-1{fill:#fff;fill-rule:evenodd}</style></defs><path d="M17.407 10.194l-5.414-8.447C11.282.639 10.196.005 9.009.005S6.735.639 6.025 1.746L.611 10.194c-.72 1.122-.799 2.319-.215 3.283.582.964 1.72 1.518 3.119 1.518h10.989c1.398 0 2.536-.554 3.119-1.518.583-.964.504-2.16-.216-3.283zM9.009 4.238c.782.001 1.418.598 1.42 1.328 0 .731-.636 1.328-1.419 1.329-.782-.001-1.419-.598-1.421-1.328 0-.733.637-1.329 1.42-1.329zm1.547 7.252a2.689 2.689 0 0 1-2.034.783c-.465-.026-.85-.219-1.085-.544-.289-.398-.328-.953-.111-1.563l.372-1.047c.206-.586.009-.679-.097-.729a.311.311 0 0 0-.129-.021c-.23 0-.546.127-.648.176a.24.24 0 0 1-.284-.057.205.205 0 0 1 .006-.273c.03-.033.794-.853 2.036-.783.462.025.847.217 1.082.541.29.398.33.955.113 1.567l-.371 1.046c-.208.585-.01.679.097.729a.32.32 0 0 0 .125.019c.232 0 .549-.126.653-.176a.239.239 0 0 1 .283.059.206.206 0 0 1-.008.273z" class="blcls-1"/></svg><svg viewBox="-2 -2 23 12" fill-rule="evenodd" clip-rule="evenodd" stroke-linejoin="round" stroke-miterlimit="1.414" width="23" height="12" id="im-bit24" x="87" y="183"><g fill="#005e94"><g fill-rule="nonzero"><path d="M5.289 6.497v1.4H0a3.64 3.64 0 0 1 .515-1.505c.287-.473.852-1.102 1.697-1.885.68-.633 1.098-1.063 1.251-1.288.208-.311.312-.619.312-.923 0-.336-.09-.594-.271-.775-.181-.181-.431-.271-.749-.271-.315 0-.566.095-.752.284-.186.19-.294.505-.322.945L.177 2.328C.267 1.499.548.903 1.02.542 1.493.181 2.083 0 2.792 0c.777 0 1.387.209 1.831.628.444.418.666.939.666 1.561 0 .354-.063.691-.19 1.011-.128.32-.329.656-.605 1.006-.182.233-.511.567-.988 1.003-.476.437-.777.727-.904.87-.127.143-.23.282-.309.418h2.996zM9.268 7.897V6.315H6.046v-1.32L9.461 0h1.268v4.989h.977v1.326h-.977v1.582H9.268zm0-2.908V2.302L7.459 4.989h1.809z"/></g><path d="M16.084.061a2.917 2.917 0 1 1-2.917 2.916A2.918 2.918 0 0 1 16.084.061zm0 .729a2.188 2.188 0 0 1 0 4.374 2.189 2.189 0 0 1-2.188-2.187c0-1.207.981-2.187 2.188-2.187zm.207 2.3h.892v.383h-1.275V1.434h.383V3.09z"/></g></svg><svg viewBox="-2 -2 16 16" fill-rule="evenodd" clip-rule="evenodd" stroke-linejoin="round" stroke-miterlimit="1.414" width="16" height="16" id="im-facebook" x="103" y="195"><path d="M6 0a6 6 0 1 0 0 12A6 6 0 0 0 6 0zm.697 7.984L4.966 6.127 1.588 7.984l3.716-3.968 1.773 1.857 3.335-1.857-3.715 3.968z" fill="#0084ff" fill-rule="nonzero"/></svg><svg viewBox="-2 -2 16 16" fill-rule="evenodd" clip-rule="evenodd" stroke-linejoin="round" stroke-miterlimit="1.414" width="16" height="16" id="im-icq" x="87" y="87"><path d="M.728 7.946c-.173-.692.359-1.267.933-1.578-.406-.023-.783-.117-1.076-.358-.718-.586-.748-1.477-.239-2.181.586-.809 1.674-1.138 2.607-.704.132.059.263.135.395.217-.263-.346-.509-.75-.628-1.167-.168-.58-.108-1.178.466-1.648.407-.322.921-.363 1.388-.129.544.27.927.857 1.082 1.419.012-1.172.885-1.888 2.04-1.811 1.058.076 1.919.838 1.877 1.929a1.82 1.82 0 0 1-.442 1.167c.568-.282 1.286-.37 1.872-.094.245.117.442.281.574.493.562.885-.257 1.847-1.101 2.158.592.082 1.131.592 1.358 1.114a1.85 1.85 0 0 1-.132 1.771 1.823 1.823 0 0 1-1.447.868c-.514.029-1.028-.153-1.435-.458.078.188.131.393.149.587.078.715-.257 1.442-.969 1.671-.723.229-1.369-.246-1.722-.838-.072 1.067-1.154 1.753-2.2 1.606-.928-.129-1.597-.826-1.627-1.765-.018-.674.263-1.091.688-1.583a2.579 2.579 0 0 1-.76.229c-.712.088-1.471-.2-1.651-.915z" fill="#010101" fill-rule="nonzero"/><path d="M5.824 7.107c.598 0 1.088-.475 1.088-1.061 0-.587-.49-1.068-1.088-1.068-.598 0-1.083.481-1.083 1.068 0 .586.485 1.061 1.083 1.061z" fill="#f8ed37"/><path d="M5.59 10.514c.126-.363-.089-2.123-.149-2.721a1.863 1.863 0 0 1-.532-.199c-.186.193-.544.622-.682.78-.233.27-.454.539-.682.797-.221.252-.442.575-.43 1.027.041 1.36 2.033 1.583 2.475.316zM4.394 4.937c-.502-.357-1.208-.985-1.722-1.225-1.274-.587-2.667.979-1.662 1.8.502.411 1.698.111 2.511 0 .192-.029.413-.047.586-.07.066-.182.162-.352.287-.505zM3.88 2.949c.239.305.975 1.114 1.316 1.414a1.76 1.76 0 0 1 .239-.071c-.078-.574-.353-1.982-.401-2.222-.167-.78-.891-1.466-1.423-1.038-.652.527-.114 1.419.269 1.917zm2.446-1.272c-.042.51.12 2.117.203 2.715.156.065.305.152.437.252.263-.264 1.274-1.495 1.429-1.683.24-.293.491-.539.515-1.05C8.969.404 6.452.164 6.326 1.677zM9.855 3.53c-.67.147-1.244.751-1.675 1.103-.245.193-.484.398-.736.586.042.07.072.147.102.229.365-.071.736-.106 1.101-.153.849-.106 1.62-.07 2.146-.598.712-.669.06-1.384-.938-1.167zm.55 2.774c-.299-.076-2.087.088-2.805.164a1.701 1.701 0 0 1-.186.457c.395.341 1.334 1.097 1.663 1.39.646.581 1.585.645 2.063-.111.497-.798-.024-1.707-.735-1.9zM7.923 8.738L6.811 7.553c-.162.1-.335.176-.527.223.06.387.275 1.513.431 1.976.173.534.783 1.179 1.328.692.46-.399.292-1.267-.12-1.706z" fill="#55b948"/><path d="M1.476 7.987c.365.44 1.304.193 1.645-.106l1.1-.979a1.809 1.809 0 0 1-.174-.463c-.49.082-1.429.281-1.65.334-.58.141-1.328.716-.921 1.214z" fill="#ed1c24"/></svg><svg viewBox="-2 -2 13 16" fill-rule="evenodd" clip-rule="evenodd" stroke-linejoin="round" stroke-miterlimit="1.414" width="13" height="16" id="im-jabber" x="129" y="86"><path d="M1.246 11.754a4.115 4.115 0 0 1-.787-.351c-.22-.135-.538-.402-.42-.686a.462.462 0 0 1 .096-.128.31.31 0 0 1 .201-.111c.086-.01.167.056.224.11.13.125.221.278.344.41.037.04.091.067.136.097.153.103.326.178.5.24.203.073.417.123.628.174.246.059.476.113.732.083.195-.023.383-.077.564-.146.077-.029.179-.104.265-.075.142.05.089.167.011.244-.139.138-.327.24-.517.296-.64.187-1.362.052-1.977-.157zm1.403-.829a3.926 3.926 0 0 1-1.961-.671 2.689 2.689 0 0 1-.579-.498c-.055-.066-.171-.214-.066-.288.051-.035.117-.033.176-.04H.218a.506.506 0 0 1 .194.004c.114.037.205.16.293.234.146.122.301.232.471.322.429.229.955.375 1.448.386.188.005.377.002.564-.023.079-.01.199-.055.276-.021.172.077.229.428.035.515-.069.031-.162.036-.235.048a2.878 2.878 0 0 1-.615.032zM.736 9.192c-.209-.154-.418-.347-.472-.603-.032-.15-.003-.287.112-.358l.142-.049.146.009c.131.04.216.159.309.269.201.24.414.478.677.659.326.223.752.309 1.144.247.132-.019.26-.056.388-.09.073-.02.158-.051.235-.04.026.005.058.011.082.024.176.088.04.293-.089.349-.239.107-.525.149-.786.16a3.022 3.022 0 0 1-1.888-.577z" fill="#f30"/><path d="M2.952 7.503a.45.45 0 0 1 .073-.336c.099-.162.266-.291.389-.439.14-.172.242-.362.341-.555.074-.148.192-.27.074-.426a.367.367 0 0 0-.064-.067c-.098-.074-.259-.003-.356.041-.207.094-.392.23-.571.357-.056.038-.161.144-.235.15-.031.002-.046-.036-.056-.055a.93.93 0 0 1-.078-.201c-.057-.202-.035-.427-.126-.621a.275.275 0 0 0-.347-.132c-.159.058-.248.209-.292.345-.107.319.002.629.021.95.008.137.064.459-.164.492-.076.011-.2-.005-.252-.061-.029-.032-.035-.088-.048-.125a3.865 3.865 0 0 1-.087-.323c-.078-.339-.131-.724-.017-1.061a.719.719 0 0 1 .339-.43c.361-.188.878-.092 1.12.204.059.074.099.16.124.249l.033.269.264-.249c.14-.13.299-.245.484-.322.069-.028.146-.049.221-.061a.657.657 0 0 1 .193-.004c.327.05.428.415.428.655.001.292-.08.582-.248.841-.139.213-.333.397-.5.597-.086.102-.166.208-.253.31-.047.058-.105.12-.189.137-.113.022-.199-.036-.221-.129z" fill="#fc0"/><path d="M4.404 11.094c-.183-.909-.184-1.63.27-2.486.067-.128.737-.639.893-.766.763-.62 1.794-1.678 1.837-2.73-.003-1.65-.764-3.087-2.289-3.811C4.461.99 3.998.905 3.302.802 2.264.906 1.405 1.061.728 1.936a.41.41 0 0 1-.573.069.41.41 0 0 1-.068-.574C.473.951.772.724 1.314.439 1.73.22 2.322.083 2.786.029c.627-.072 1.072-.008 1.683.162 1.161.323 2.205 1.022 2.88 2.028.2.298.315.561.462.884.136.298.184.627.259.941.073.304.088.847.057 1.16-.165 1.642-1.76 2.828-2.997 3.719-.309.593-.525 1.422-.322 2.083a.207.207 0 0 1-.404.088zm.726-2.171l.032-.061a.296.296 0 0 1-.076.093l.044-.032zm2.276-3.832c0 .007 0 .015-.002.021l.001.013c-.001-.012.001-.022.001-.034zM3.338.798a.234.234 0 0 1-.07-.001l.034.005.036-.004z" fill="#f30"/></svg><svg viewBox="-2 -2 16 16" fill-rule="evenodd" clip-rule="evenodd" stroke-linejoin="round" stroke-miterlimit="1.414" width="16" height="16" id="im-msn" x="219" y="197"><path d="M.139 2.223c-.22.142-.167.603.076 1.206.851 2.107 2.03 3.83 3.533 5.127 1.232-.861.387-1.354.548-1.958.256-.599.339-1.181 1.018-1.381l-.083-.576C4.06 3.459 2.718 2.555 1.206 2.108c-.327-.096-.711-.113-1.067.115z" fill="#00a3e1"/><path d="M6.041 4.925c.541 1.014.908 1.958 1.116 2.886l.027.169.049.177c.679.315 1.379.461 2.106.368.755-.115 1.302-.46 1.635-1.059l.395-1.013c-.499-1.006-1.33-1.643-2.494-1.873a4.842 4.842 0 0 0-2.834.345z" fill="#f4a85e"/><path d="M7.157 7.812c-.208-.929-.575-1.873-1.116-2.887l-.055-.084-.284-.491c-.132-.2-.222-.244-.34-.186-.123.06-.18.163-.131.393v.084l.083.576.021.2.935 2.855.104.23c.312.545.651 1.006.99 1.351l-.131-1.612-.049-.261-.027-.168z" fill="#2264a9"/><path d="M6.041 4.925a4.842 4.842 0 0 1 2.834-.345c1.164.23 1.995.867 2.494 1.873.748-2.219.86-4.091.18-5.558a1.941 1.941 0 0 0-.52-.66c-.412-.342-.904-.283-1.427 0C7.521 1.364 6.234 2.806 5.79 4.503l.196.338.055.084z" fill="#ec613f"/><path d="M5.335 5.417l-.021-.2c-.679.2-1.15.607-1.406 1.205-.264.607-.312 1.297-.16 2.134l.548.407c.548.185 1.091.285 1.614.084l.464-.545-.104-.23-.935-2.855z" fill="#00ab58"/><path d="M3.748 8.556c.548 1.558 1.345 2.752 2.501 3.37a.724.724 0 0 0 .568.03c.117-.041.183-.191.236-.314.18-.424.256-1.013.312-1.789-.34-.345-.679-.806-.991-1.351-1.005.718-1.565.842-2.626.054z" fill="#75c05b"/><path d="M9.394 11.319c.207.025.376-.099.52-.23a4.59 4.59 0 0 0 1.295-1.988c.297-.885.34-1.75.16-2.648l-.395 1.013c-.333.599-.88.944-1.635 1.059-.728.093-1.427-.053-2.106-.368v.084l.131 1.612a5.468 5.468 0 0 0 1.691 1.351c.108.054.222.101.339.115z" fill="#ffcc35"/></svg><svg viewBox="-2 -2 16 16" fill-rule="evenodd" clip-rule="evenodd" stroke-linejoin="round" stroke-miterlimit="1.414" width="16" height="16" id="im-other" x="135" y="195"><path d="M10.614 0H1.386C.621 0 0 .667 0 1.491v6.956c0 .823.621 1.49 1.386 1.49h.956V12l2.533-2.063h5.739c.765 0 1.386-.667 1.386-1.49V1.491C12 .667 11.379 0 10.614 0z" fill="#4d4d4d" fill-rule="nonzero"/></svg><svg viewBox="-2 -2 16 16" fill-rule="evenodd" clip-rule="evenodd" stroke-linejoin="round" stroke-miterlimit="1.414" width="16" height="16" id="im-skype" x="87" y="195"><path d="M11.796 6.013c0-3.101-2.572-5.614-5.745-5.614-.364 0-.72.035-1.066.098A3.282 3.282 0 0 0 3.242 0C1.452 0 0 1.419 0 3.169a3.1 3.1 0 0 0 .448 1.606 5.496 5.496 0 0 0-.142 1.238c0 3.1 2.572 5.613 5.745 5.613.347 0 .687-.032 1.017-.089.492.293 1.07.463 1.689.463C10.548 12 12 10.581 12 8.831c0-.532-.135-1.032-.372-1.472.109-.431.168-.882.168-1.346zM8.622 8.63c-.23.347-.565.618-1.007.814-.441.196-.965.294-1.57.294-.726 0-1.325-.134-1.797-.402a2.372 2.372 0 0 1-.815-.772c-.209-.322-.314-.635-.314-.939a.648.648 0 0 1 .667-.643c.158 0 .291.049.4.147.108.098.201.244.278.437.094.229.195.42.304.573.108.154.261.281.459.38.197.1.456.15.778.15.441 0 .8-.101 1.076-.302.276-.201.414-.452.414-.752a.783.783 0 0 0-.223-.581 1.438 1.438 0 0 0-.577-.341 9.942 9.942 0 0 0-.946-.25 7.024 7.024 0 0 1-1.327-.424 2.137 2.137 0 0 1-.848-.662c-.21-.28-.314-.627-.314-1.042 0-.396.11-.747.331-1.055.221-.307.54-.543.959-.708.418-.165.91-.248 1.475-.248.451 0 .842.055 1.172.164.329.11.603.255.82.437.217.181.377.372.477.571.1.2.15.394.15.584a.678.678 0 0 1-.188.468.606.606 0 0 1-.469.209c-.171 0-.3-.042-.389-.125a1.693 1.693 0 0 1-.289-.41 1.856 1.856 0 0 0-.481-.635c-.188-.152-.489-.228-.903-.228-.385 0-.695.083-.931.248-.236.165-.354.363-.354.596 0 .143.04.268.12.372.081.105.191.195.332.27.14.075.282.134.426.176.144.043.382.105.713.187.415.095.79.199 1.126.314.337.114.623.253.858.416.236.164.42.37.553.621.132.249.198.556.198.919 0 .435-.115.825-.344 1.172z" fill="#00aaf1" fill-rule="nonzero"/></svg><svg viewBox="-2 -2 16 16" fill-rule="evenodd" clip-rule="evenodd" stroke-linejoin="round" stroke-miterlimit="1.414" width="16" height="16" id="im-telegramm" x="119" y="195"><path d="M5.672.015A6.07 6.07 0 0 0 1.88 1.713 6.074 6.074 0 0 0 .036 6.765a5.873 5.873 0 0 0 4.133 4.98c1.744.534 3.7.217 5.205-.84 1.848-1.301 2.835-3.46 2.59-5.669A5.874 5.874 0 0 0 7.83.256 6.081 6.081 0 0 0 5.672.015zm4.104 2.147a.247.247 0 0 1 .12.188c.006.033-.224 1.314-.715 3.981-.682 3.719-.723 3.935-.761 3.994a.27.27 0 0 1-.226.128c-.051 0-.31-.1-1.33-.511l-1.266-.508-.274.443c-.149.244-.293.465-.316.491a.254.254 0 0 1-.196.085.23.23 0 0 1-.198-.092c-.023-.03-.25-.427-.504-.883l-.46-.83-1.036-.416c-.952-.384-1.039-.422-1.078-.469-.08-.094-.085-.254-.008-.337.04-.042 7.987-5.283 8.036-5.298a.28.28 0 0 1 .212.034z" fill="#0099e5" fill-rule="nonzero"/></svg><svg viewBox="-2 -2 16 16" fill-rule="evenodd" clip-rule="evenodd" stroke-linejoin="round" stroke-miterlimit="1.414" width="16" height="16" id="im-vkontakte" x="241" y="204"><path d="M5.47.015a5.852 5.852 0 0 0-3.737 1.698A5.898 5.898 0 0 0 .062 6.765a6.142 6.142 0 0 0 4.301 4.98c1.762.534 3.708.217 5.177-.84a5.902 5.902 0 0 0 2.398-5.669A6.143 6.143 0 0 0 7.637.256 6.149 6.149 0 0 0 5.47.015zm.52 3.718c.308.03.462.079.533.169a.584.584 0 0 1 .066.135c.038.105.04.225.034 1.124-.004.562.007.734.054.859.057.142.177.207.28.153.096-.05.314-.294.456-.511.328-.498.525-.884.761-1.48.048-.117.113-.195.183-.213.026-.008.418-.015.9-.016l.85-.003.072.03c.093.042.13.096.132.194.003.187-.185.57-.512 1.038-.045.065-.213.295-.375.512-.356.478-.432.59-.486.706-.066.147-.047.267.064.41.033.04.196.202.363.359.468.441.68.674.855.928.125.184.174.319.156.435-.007.064-.07.14-.142.177-.085.043-.216.052-.939.061l-.684.01-.111-.037c-.284-.094-.474-.251-.91-.746-.241-.273-.42-.408-.54-.409-.113 0-.253.149-.31.335-.04.124-.053.22-.063.435-.01.255-.04.314-.195.379-.056.025-.76.033-.948.014a2.671 2.671 0 0 1-1.072-.362c-.504-.293-.814-.556-1.149-.974-.582-.727-.981-1.346-1.468-2.281a11.74 11.74 0 0 1-.448-.946c-.036-.116.012-.211.125-.247.038-.013.253-.02.751-.027l.698-.006.083.03c.13.05.184.113.275.325.077.178.494.986.623 1.211.132.228.273.419.392.532.148.143.214.177.315.169.087-.008.111-.028.163-.145.126-.284.131-1.242.007-1.618-.072-.214-.174-.296-.454-.355-.049-.011-.049-.028-.006-.093.105-.155.296-.229.662-.26.2-.016.794-.018.96-.001z" fill="#45668e" fill-rule="nonzero"/></svg><svg viewBox="-2 -2 24 15" fill-rule="evenodd" clip-rule="evenodd" stroke-linejoin="round" stroke-miterlimit="1.414" width="24" height="15" id="infinity" x="61" y="44"><path d="M8.644 9.03c-.954.968-2.261 1.528-3.603 1.522a5.218 5.218 0 0 1-1.996-.415C-2.007 7.983-.38.019 5.041.001a5.009 5.009 0 0 1 1.962.402 5.154 5.154 0 0 1 1.663 1.143L6.853 3.411C4.026.503.379 6.144 4.043 7.707c.313.133.658.206.998.207a2.528 2.528 0 0 0 1.812-.772l.015-.015c2.844-2.978 2.443-3.32 5.43-6.107 2.342-2.185 6.089-.584 7.212 2.204 1.065 2.644-.137 5.807-2.73 6.913a5.172 5.172 0 0 1-1.995.415 5.064 5.064 0 0 1-3.626-1.545l1.813-1.865a2.532 2.532 0 0 0 1.813.772c.339-.001.684-.074.998-.207 3.557-1.517.116-7.068-2.35-4.327-1.643 1.825-3.057 3.867-4.767 5.627l-.022.023" fill="#fff"/></svg><svg viewBox="-2 -2 20 20" fill-rule="evenodd" clip-rule="evenodd" stroke-linejoin="round" stroke-miterlimit="1.414" width="20" height="20" id="info" x="114" y="214"><g fill="#fff"><path d="M1.191 2.496H14.81v1.06H1.191zM2.326 0h11.349v1.06H2.326zM16 16H0V4.992h16V16zm-7.37-1.92v-1.06H1.821v1.06H8.63zm0-2.385v-1.061H1.821v1.061H8.63zm5.675-.265V7.189H10.9v4.241h3.405zM8.63 9.309v-2.12H1.821v2.12H8.63z"/></g></svg><svg viewBox="-2 -2 20 20" fill-rule="evenodd" clip-rule="evenodd" stroke-linejoin="round" stroke-miterlimit="1.414" width="20" height="20" id="info-gray" x="134" y="214"><g fill="#dfdfdf"><path d="M1.191 2.496H14.81v1.06H1.191zM2.326 0h11.349v1.06H2.326zM16 16H0V4.992h16V16zm-7.37-1.92v-1.06H1.821v1.06H8.63zm0-2.385v-1.061H1.821v1.061H8.63zm5.675-.265V7.189H10.9v4.241h3.405zM8.63 9.309v-2.12H1.821v2.12H8.63z"/></g></svg><svg viewBox="-2 -2 17 17" fill-rule="evenodd" clip-rule="evenodd" stroke-linecap="round" stroke-linejoin="round" stroke-miterlimit="1.414" width="17" height="17" id="label" x="241" y="153"><g stroke-width=".5" stroke="#000"><path d="M1.314 6.565a.312.312 0 0 1-.079-.139L.469 3.538a1.034 1.034 0 0 1 .263-1L2.538.732a1.034 1.034 0 0 1 1-.263l2.887.765a.315.315 0 0 1 .14.082l5.416 5.507a.876.876 0 0 1 0 1.238L8.012 12.03a.872.872 0 0 1-1.239 0L1.314 6.565zm.254-.078a.31.31 0 0 1-.076-.131L.745 3.62a.966.966 0 0 1 .241-.942L2.678.986a.965.965 0 0 1 .942-.24l2.734.746c.05.014.096.041.133.078l5.161 5.246a.844.844 0 0 1 .247.587.817.817 0 0 1-.237.583l-3.719 3.718a.811.811 0 0 1-.583.237.837.837 0 0 1-.587-.247L1.568 6.487z"/><path d="M2.465 2.469a1.208 1.208 0 1 1 1.709 1.709 1.208 1.208 0 0 1-1.709-1.709zm.171.171a.966.966 0 1 1 1.367 1.367.966.966 0 1 1-1.367-1.367zM10.08 7.457L6.542 3.919l-.391.39 3.538 3.538.391-.39zM7.843 9.693L4.305 6.155l-.39.39 3.538 3.539.39-.391zM8.962 8.575L5.423 5.037l-.39.39 3.538 3.539.391-.391z"/></g></svg><svg viewBox="-2 -2 20 20" fill-rule="evenodd" clip-rule="evenodd" stroke-linejoin="round" stroke-miterlimit="1.414" width="20" height="20" id="like" x="174" y="214"><path d="M0 14c2.83 1.283 6.19 2 9.5 2 1.073 0 2.13-.05 3.16-.22.403-.067.927-.217 1.153-.39a1.334 1.334 0 0 0 .071-2.057H14a1.332 1.332 0 1 0 0-2.666h.667a1.333 1.333 0 0 0 0-2.667 1.333 1.333 0 0 0 0-2.667h-5.98a.832.832 0 0 1-.833-.833l.419-2.77a1.333 1.333 0 0 0-2.56-.743l-.056.19C4.8 3.903 2.86 6.394 0 8v6z" fill="#010101"/></svg><svg width="29" height="34" viewBox="-2 -2 365.12 365.12" id="lock" x="190" y="35"><path d="M274.765 141.3V94.205C274.765 42.172 232.583 0 180.559 0c-52.032 0-94.205 42.172-94.205 94.205V141.3c-17.34 0-31.4 14.06-31.4 31.4v157.016c0 17.344 14.06 31.402 31.4 31.402h188.411c17.341 0 31.398-14.059 31.398-31.402V172.7c.001-17.34-14.057-31.4-31.398-31.4zM117.756 94.205c0-34.69 28.12-62.803 62.803-62.803 34.685 0 62.805 28.112 62.805 62.803V141.3H117.756V94.205zm157.009 235.51H86.354V172.708h188.411v157.007zm-109.907-67.157v20.054c0 8.664 7.035 15.701 15.701 15.701 8.664 0 15.701-7.037 15.701-15.701v-20.054c9.337-5.441 15.701-15.456 15.701-27.046 0-17.348-14.062-31.41-31.402-31.41-17.34 0-31.4 14.062-31.4 31.41 0 11.59 6.358 21.605 15.699 27.046z"/></svg><svg viewBox="-2 -2 18 15" fill-rule="evenodd" clip-rule="evenodd" stroke-linejoin="round" stroke-miterlimit="1.414" width="18" height="15" id="message" x="241" y="104"><path d="M.275 1.507l6.75 3.875.001.002.002-.001.002.001.001-.002 6.698-3.867c.174.355.271.755.271 1.177v5.384a2.694 2.694 0 0 1-2.692 2.693H2.692A2.694 2.694 0 0 1 0 8.076V2.692c0-.425.099-.827.275-1.185zM11.308 0a2.68 2.68 0 0 1 1.772.666L7 4.177.92.666A2.68 2.68 0 0 1 2.692 0h8.616z" fill="#fff"/></svg><svg viewBox="-2 -2 18 15" fill-rule="evenodd" clip-rule="evenodd" stroke-linejoin="round" stroke-miterlimit="1.414" width="18" height="15" id="message-gray" x="241" y="72"><path d="M.275 1.507l6.75 3.875.001.002.002-.001.002.001.001-.002 6.698-3.867c.174.355.271.755.271 1.177v5.384a2.694 2.694 0 0 1-2.692 2.693H2.692A2.694 2.694 0 0 1 0 8.076V2.692c0-.425.099-.827.275-1.185zM11.308 0a2.68 2.68 0 0 1 1.772.666L7 4.177.92.666A2.68 2.68 0 0 1 2.692 0h8.616z" fill="#9fa3a6"/></svg><svg width="29" height="29" viewBox="-2 -2 19 20" fill-rule="evenodd" clip-rule="evenodd" stroke-linejoin="round" stroke-miterlimit="1.414" id="on" x="190" y="127"><path d="M4.781 1.729a.852.852 0 0 0-1.204-.389A7.55 7.55 0 0 0 0 7.75c0 4.139 3.361 7.5 7.5 7.5 4.139 0 7.5-3.361 7.5-7.5a7.502 7.502 0 0 0-3.584-6.397.84.84 0 0 0-1.184.382.894.894 0 0 0-.096.177.854.854 0 0 0 .345 1.086 5.576 5.576 0 0 1 2.644 4.752A5.627 5.627 0 0 1 7.5 13.375a5.626 5.626 0 1 1-2.989-10.39.838.838 0 0 0 .338-1.066.782.782 0 0 0-.068-.19z"/><path d="M8.5 1a1 1 0 0 0-2 0v5.5a1 1 0 0 0 2 0V1z"/></svg><svg viewBox="-2 -2 19 19" fill-rule="evenodd" clip-rule="evenodd" stroke-linejoin="round" stroke-miterlimit="1.414" width="19" height="19" id="pen" x="174" y="234"><path d="M5.139 12.626a.693.693 0 0 0 .98-.001c1.731-1.74 6.007-6.048 7.749-7.799a.707.707 0 0 0 0-.998A6180.92 6180.92 0 0 1 10.255.207a.708.708 0 0 0-.999 0L1.488 7.974a.709.709 0 0 0 0 1.001l.08.08-1.541 4.411a.48.48 0 0 0 .612.611l4.41-1.541.09.09zM2.535 8.991L9.756 1.77l-.516-.516-7.221 7.221.516.516zm1.547 1.547l7.221-7.221-.516-.516-7.22 7.221.515.516zm1.548 1.547l7.22-7.221-.516-.515-7.22 7.22.516.516z" fill="#9fa3a6"/></svg><svg viewBox="-2 -2 19 19" fill-rule="evenodd" clip-rule="evenodd" stroke-linejoin="round" stroke-miterlimit="1.414" width="19" height="19" id="pen-white" x="98" y="234"><path d="M5.139 12.626a.693.693 0 0 0 .98-.001c1.731-1.74 6.007-6.048 7.749-7.799a.707.707 0 0 0 0-.998A6180.92 6180.92 0 0 1 10.255.207a.708.708 0 0 0-.999 0L1.488 7.974a.709.709 0 0 0 0 1.001l.08.08-1.541 4.411a.48.48 0 0 0 .612.611l4.41-1.541.09.09zM2.535 8.991L9.756 1.77l-.516-.516-7.221 7.221.516.516zm1.547 1.547l7.221-7.221-.516-.516-7.22 7.221.515.516zm1.548 1.547l7.22-7.221-.516-.515-7.22 7.22.516.516z" fill="#fff"/></svg><svg width="16" height="26" viewBox="-2 -2 13 18" fill-rule="evenodd" clip-rule="evenodd" stroke-linejoin="round" stroke-miterlimit="1.414" id="pin" x="87" y="61"><path d="M4.321 14s4.321-6.775 4.321-9.679A4.323 4.323 0 0 0 4.321 0 4.323 4.323 0 0 0 0 4.321C0 7.225 4.321 14 4.321 14zm0-11.518c1.171 0 2.123.952 2.123 2.123a2.124 2.124 0 1 1-2.123-2.123z" fill="#fff"/></svg><svg width="16" height="26" viewBox="-2 -2 13 18" fill-rule="evenodd" clip-rule="evenodd" stroke-linejoin="round" stroke-miterlimit="1.414" id="pin-gray" x="126" y="105"><path d="M4.321 14s4.321-6.775 4.321-9.679A4.323 4.323 0 0 0 4.321 0 4.323 4.323 0 0 0 0 4.321C0 7.225 4.321 14 4.321 14zm0-11.518c1.171 0 2.123.952 2.123 2.123a2.124 2.124 0 1 1-2.123-2.123z" fill="#9fa3a6"/></svg><svg width="22" height="20" viewBox="-2 -2 19 18" fill-rule="evenodd" clip-rule="evenodd" stroke-linejoin="round" stroke-miterlimit="1.414" id="portfolio" x="219" y="36"><path d="M0 8.284h6.176v1.477a.55.55 0 0 0 .55.551h1.173a.55.55 0 0 0 .55-.551V8.284h6.176v5.145a.571.571 0 0 1-.571.571H.571A.571.571 0 0 1 0 13.429V8.284zm0-.801V3.147c0-.315.256-.571.571-.571h3.897V1.211C4.468.543 5.011 0 5.68 0h3.265c.669 0 1.211.543 1.211 1.211v1.365h3.898c.315 0 .571.256.571.571v4.336H0zM8.52.631H6.105a.896.896 0 0 0-.896.895v1.05h4.207v-1.05A.896.896 0 0 0 8.52.631z" fill="#fff"/></svg><svg viewBox="-2 -2 22 17" fill-rule="evenodd" clip-rule="evenodd" stroke-linejoin="round" stroke-miterlimit="1.414" width="22" height="17" id="refresh" x="219" y="19"><g fill="#fff"><path d="M2.424 4.703a5.967 5.967 0 0 1 10.048-2.956l-2.108 2.109a2.981 2.981 0 0 0-4.812.847h2.382l-3.967 4.74L0 4.703h2.424zM15.331 8.262a5.966 5.966 0 0 1-10.048 2.956L7.392 9.11a2.982 2.982 0 0 0 4.812-.848H9.821l3.967-4.74 3.967 4.74h-2.424z"/></g></svg><svg viewBox="-2 -2 20 20" fill-rule="evenodd" clip-rule="evenodd" stroke-linejoin="round" stroke-miterlimit="1.414" width="20" height="20" id="revert" x="20" y="234"><path d="M1.669 3.064A8.025 8.025 0 0 1 7.98 0C12.407 0 16 3.585 16 8s-3.593 8-8.02 8a8.017 8.017 0 0 1-7.701-5.769l1.925-.558A6.013 6.013 0 0 0 7.98 14c3.32 0 6.015-2.689 6.015-6S11.3 2 7.98 2a6.017 6.017 0 0 0-4.884 2.499h2.413c.319 0 .577.263.577.587v.525a.582.582 0 0 1-.577.588H.577A.582.582 0 0 1 0 5.611V.587C0 .263.258 0 .577 0h.515c.319 0 .577.263.577.587v2.477z" fill="#fff"/></svg><svg viewBox="-2 -2 18 20" fill-rule="evenodd" clip-rule="evenodd" stroke-linejoin="round" stroke-miterlimit="1.414" width="18" height="20" id="sand-clock" x="241"><path d="M12.491 15.75H.543A.543.543 0 0 1 0 15.207v-1.086c0-.268.195-.491.543-.543h11.948c.349.052.543.275.543.543v1.086c0 .3-.243.543-.543.543zm-9.183-2.172H1.684c.252-3.673 2.323-5.975 4.833-5.975 2.51 0 4.581 2.302 4.833 5.975H9.727c-.082-2.349-1.491-4.209-3.21-4.209-1.718 0-3.128 1.86-3.209 4.209z" fill="#fff"/><path d="M.543 0h11.948c.3 0 .543.243.543.543v1.086c0 .268-.194.491-.543.543H.543C.195 2.12 0 1.897 0 1.629V.543C0 .243.243 0 .543 0zm9.184 2.172h1.623c-.252 3.673-2.323 5.975-4.833 5.975-2.51 0-4.581-2.302-4.833-5.975h1.624c.081 2.349 1.491 4.209 3.209 4.209 1.719 0 3.128-1.86 3.21-4.209z" fill="#fff"/></svg><svg viewBox="-2 -2 18 20" fill-rule="evenodd" clip-rule="evenodd" stroke-linejoin="round" stroke-miterlimit="1.414" width="18" height="20" id="sand-clock-gray" x="210" y="214"><path d="M12.491 15.75H.543A.543.543 0 0 1 0 15.207v-1.086c0-.268.195-.491.543-.543h11.948c.349.052.543.275.543.543v1.086c0 .3-.243.543-.543.543zm-9.183-2.172H1.684c.252-3.673 2.323-5.975 4.833-5.975 2.51 0 4.581 2.302 4.833 5.975H9.727c-.082-2.349-1.491-4.209-3.21-4.209-1.718 0-3.128 1.86-3.209 4.209z" fill="#dfdfdf"/><path d="M.543 0h11.948c.3 0 .543.243.543.543v1.086c0 .268-.194.491-.543.543H.543C.195 2.12 0 1.897 0 1.629V.543C0 .243.243 0 .543 0zm9.184 2.172h1.623c-.252 3.673-2.323 5.975-4.833 5.975-2.51 0-4.581-2.302-4.833-5.975h1.624c.081 2.349 1.491 4.209 3.209 4.209 1.719 0 3.128-1.86 3.21-4.209z" fill="#dfdfdf"/></svg><svg viewBox="-2 -2 20 20" fill-rule="evenodd" clip-rule="evenodd" stroke-linejoin="round" stroke-miterlimit="1.414" width="20" height="20" id="smile-fail" x="154" y="214"><g fill="#f33"><path d="M8 0c4.415 0 8 3.585 8 8s-3.585 8-8 8-8-3.585-8-8 3.585-8 8-8zm0 1.2c3.753 0 6.8 3.047 6.8 6.8 0 3.753-3.047 6.8-6.8 6.8A6.803 6.803 0 0 1 1.2 8c0-3.753 3.047-6.8 6.8-6.8z"/><path d="M4.374 12.003a4 4 0 0 1 7.252 0l-1.088.506a2.799 2.799 0 0 0-5.076 0l-1.088-.506z"/><circle cx="6.129" cy="6.005" r=".995"/><circle cx="9.871" cy="6.005" r=".995"/></g></svg><svg width="37" height="37" viewBox="-2 -2 20 20" fill-rule="evenodd" clip-rule="evenodd" stroke-linejoin="round" stroke-miterlimit="1.414" id="smile-fail-big" y="146"><g fill="#fff"><path d="M8 0c4.415 0 8 3.585 8 8s-3.585 8-8 8-8-3.585-8-8 3.585-8 8-8zm0 1.2c3.753 0 6.8 3.047 6.8 6.8 0 3.753-3.047 6.8-6.8 6.8A6.803 6.803 0 0 1 1.2 8c0-3.753 3.047-6.8 6.8-6.8z"/><path d="M4.374 12.003a4 4 0 0 1 7.252 0l-1.088.506a2.799 2.799 0 0 0-5.076 0l-1.088-.506z"/><circle cx="6.129" cy="6.005" r=".995"/><circle cx="9.871" cy="6.005" r=".995"/></g></svg><svg width="37" height="37" viewBox="-2 -2 20 20" fill-rule="evenodd" clip-rule="evenodd" stroke-linejoin="round" stroke-miterlimit="1.414" id="smile-fail-big-gray" x="37" y="146"><g fill="#aaafb5"><path d="M8 0c4.415 0 8 3.585 8 8s-3.585 8-8 8-8-3.585-8-8 3.585-8 8-8zm0 1.2c3.753 0 6.8 3.047 6.8 6.8 0 3.753-3.047 6.8-6.8 6.8A6.803 6.803 0 0 1 1.2 8c0-3.753 3.047-6.8 6.8-6.8z"/><path d="M4.374 12.003a4 4 0 0 1 7.252 0l-1.088.506a2.799 2.799 0 0 0-5.076 0l-1.088-.506z"/><circle cx="6.129" cy="6.005" r=".995"/><circle cx="9.871" cy="6.005" r=".995"/></g></svg><svg viewBox="-2 -2 20 20" fill-rule="evenodd" clip-rule="evenodd" stroke-linejoin="round" stroke-miterlimit="1.414" width="20" height="20" id="smile-fail-gray" x="38" y="214"><g fill="#b2b2b2"><path d="M8 0c4.415 0 8 3.585 8 8s-3.585 8-8 8-8-3.585-8-8 3.585-8 8-8zm0 1.2c3.753 0 6.8 3.047 6.8 6.8 0 3.753-3.047 6.8-6.8 6.8A6.803 6.803 0 0 1 1.2 8c0-3.753 3.047-6.8 6.8-6.8z"/><path d="M4.374 12.003a4 4 0 0 1 7.252 0l-1.088.506a2.799 2.799 0 0 0-5.076 0l-1.088-.506z"/><circle cx="6.129" cy="6.005" r=".995"/><circle cx="9.871" cy="6.005" r=".995"/></g></svg><svg width="43" height="43" viewBox="-2 -2 20 20" fill-rule="evenodd" clip-rule="evenodd" stroke-linejoin="round" stroke-miterlimit="1.414" id="smile-fail-white" x="44" y="61"><g fill="#fff"><path d="M8 0c4.415 0 8 3.585 8 8s-3.585 8-8 8-8-3.585-8-8 3.585-8 8-8zm0 1.2c3.753 0 6.8 3.047 6.8 6.8 0 3.753-3.047 6.8-6.8 6.8A6.803 6.803 0 0 1 1.2 8c0-3.753 3.047-6.8 6.8-6.8z"/><path d="M4.374 12.003a4 4 0 0 1 7.252 0l-1.088.506a2.799 2.799 0 0 0-5.076 0l-1.088-.506z"/><circle cx="6.129" cy="6.005" r=".995"/><circle cx="9.871" cy="6.005" r=".995"/></g></svg><svg viewBox="-2 -2 20 20" fill-rule="evenodd" clip-rule="evenodd" stroke-linejoin="round" stroke-miterlimit="1.414" width="20" height="20" id="smile-nohow" x="219" y="177"><g fill="#b2b2b2"><path d="M8 0c4.415 0 8 3.585 8 8s-3.585 8-8 8-8-3.585-8-8 3.585-8 8-8zm0 1.2c3.753 0 6.8 3.047 6.8 6.8 0 3.753-3.047 6.8-6.8 6.8A6.803 6.803 0 0 1 1.2 8c0-3.753 3.047-6.8 6.8-6.8z"/><path d="M4.374 9.691h7.252V11.1H4.374z"/><circle cx="6.129" cy="6.005" r=".995"/><circle cx="9.871" cy="6.005" r=".995"/></g></svg><svg width="37" height="37" viewBox="-2 -2 20 20" fill-rule="evenodd" clip-rule="evenodd" stroke-linejoin="round" stroke-miterlimit="1.414" id="smile-nohow-big" x="74" y="146"><g fill="#fff"><path d="M8 0c4.415 0 8 3.585 8 8s-3.585 8-8 8-8-3.585-8-8 3.585-8 8-8zm0 1.2c3.753 0 6.8 3.047 6.8 6.8 0 3.753-3.047 6.8-6.8 6.8A6.803 6.803 0 0 1 1.2 8c0-3.753 3.047-6.8 6.8-6.8z"/><path d="M4.374 9.691h7.252V11.1H4.374z"/><circle cx="6.129" cy="6.005" r=".995"/><circle cx="9.871" cy="6.005" r=".995"/></g></svg><svg width="37" height="37" viewBox="-2 -2 20 20" fill-rule="evenodd" clip-rule="evenodd" stroke-linejoin="round" stroke-miterlimit="1.414" id="smile-nohow-big-gray" x="111" y="146"><g fill="#aaafb5"><path d="M8 0c4.415 0 8 3.585 8 8s-3.585 8-8 8-8-3.585-8-8 3.585-8 8-8zm0 1.2c3.753 0 6.8 3.047 6.8 6.8 0 3.753-3.047 6.8-6.8 6.8A6.803 6.803 0 0 1 1.2 8c0-3.753 3.047-6.8 6.8-6.8z"/><path d="M4.374 9.691h7.252V11.1H4.374z"/><circle cx="6.129" cy="6.005" r=".995"/><circle cx="9.871" cy="6.005" r=".995"/></g></svg><svg viewBox="-2 -2 20 20" fill-rule="evenodd" clip-rule="evenodd" stroke-linejoin="round" stroke-miterlimit="1.414" width="20" height="20" id="smile-nohow-gray" x="58" y="214"><g fill="#b2b2b2"><path d="M8 0c4.415 0 8 3.585 8 8s-3.585 8-8 8-8-3.585-8-8 3.585-8 8-8zm0 1.2c3.753 0 6.8 3.047 6.8 6.8 0 3.753-3.047 6.8-6.8 6.8A6.803 6.803 0 0 1 1.2 8c0-3.753 3.047-6.8 6.8-6.8z"/><path d="M4.374 9.691h7.252V11.1H4.374z"/><circle cx="6.129" cy="6.005" r=".995"/><circle cx="9.871" cy="6.005" r=".995"/></g></svg><svg width="43" height="43" viewBox="-2 -2 20 20" fill-rule="evenodd" clip-rule="evenodd" stroke-linejoin="round" stroke-miterlimit="1.414" id="smile-nohow-white" x="105" y="43"><g fill="#fff"><path d="M8 0c4.415 0 8 3.585 8 8s-3.585 8-8 8-8-3.585-8-8 3.585-8 8-8zm0 1.2c3.753 0 6.8 3.047 6.8 6.8 0 3.753-3.047 6.8-6.8 6.8A6.803 6.803 0 0 1 1.2 8c0-3.753 3.047-6.8 6.8-6.8z"/><path d="M4.374 9.691h7.252V11.1H4.374z"/><circle cx="6.129" cy="6.005" r=".995"/><circle cx="9.871" cy="6.005" r=".995"/></g></svg><svg viewBox="-2 -2 20 20" fill-rule="evenodd" clip-rule="evenodd" stroke-linejoin="round" stroke-miterlimit="1.414" width="20" height="20" id="smile-ok" y="234"><g fill="#95c634"><path d="M8 0c4.415 0 8 3.585 8 8s-3.585 8-8 8-8-3.585-8-8 3.585-8 8-8zm0 1.2c3.753 0 6.8 3.047 6.8 6.8 0 3.753-3.047 6.8-6.8 6.8A6.803 6.803 0 0 1 1.2 8c0-3.753 3.047-6.8 6.8-6.8z"/><path d="M4.374 10.198a3.999 3.999 0 0 0 7.252 0l-1.088-.507a2.799 2.799 0 0 1-5.076 0l-1.088.507z"/><circle cx="6.129" cy="6.005" r=".995"/><circle cx="9.871" cy="6.005" r=".995"/></g></svg><svg width="37" height="37" viewBox="-2 -2 20 20" fill-rule="evenodd" clip-rule="evenodd" stroke-linejoin="round" stroke-miterlimit="1.414" id="smile-ok-big" x="148" y="81"><g fill="#fff"><path d="M8 0c4.415 0 8 3.585 8 8s-3.585 8-8 8-8-3.585-8-8 3.585-8 8-8zm0 1.2c3.753 0 6.8 3.047 6.8 6.8 0 3.753-3.047 6.8-6.8 6.8A6.803 6.803 0 0 1 1.2 8c0-3.753 3.047-6.8 6.8-6.8z"/><path d="M4.374 10.198a3.999 3.999 0 0 0 7.252 0l-1.088-.507a2.799 2.799 0 0 1-5.076 0l-1.088.507z"/><circle cx="6.129" cy="6.005" r=".995"/><circle cx="9.871" cy="6.005" r=".995"/></g></svg><svg width="37" height="37" viewBox="-2 -2 20 20" fill-rule="evenodd" clip-rule="evenodd" stroke-linejoin="round" stroke-miterlimit="1.414" id="smile-ok-big-gray" x="148" y="146"><g fill="#aaafb5"><path d="M8 0c4.415 0 8 3.585 8 8s-3.585 8-8 8-8-3.585-8-8 3.585-8 8-8zm0 1.2c3.753 0 6.8 3.047 6.8 6.8 0 3.753-3.047 6.8-6.8 6.8A6.803 6.803 0 0 1 1.2 8c0-3.753 3.047-6.8 6.8-6.8z"/><path d="M4.374 10.198a3.999 3.999 0 0 0 7.252 0l-1.088-.507a2.799 2.799 0 0 1-5.076 0l-1.088.507z"/><circle cx="6.129" cy="6.005" r=".995"/><circle cx="9.871" cy="6.005" r=".995"/></g></svg><svg viewBox="-2 -2 20 20" fill-rule="evenodd" clip-rule="evenodd" stroke-linejoin="round" stroke-miterlimit="1.414" width="20" height="20" id="smile-ok-gray" x="59" y="234"><g fill="#b2b2b2"><path d="M8 0c4.415 0 8 3.585 8 8s-3.585 8-8 8-8-3.585-8-8 3.585-8 8-8zm0 1.2c3.753 0 6.8 3.047 6.8 6.8 0 3.753-3.047 6.8-6.8 6.8A6.803 6.803 0 0 1 1.2 8c0-3.753 3.047-6.8 6.8-6.8z"/><path d="M4.374 10.198a3.999 3.999 0 0 0 7.252 0l-1.088-.507a2.799 2.799 0 0 1-5.076 0l-1.088.507z"/><circle cx="6.129" cy="6.005" r=".995"/><circle cx="9.871" cy="6.005" r=".995"/></g></svg><svg width="43" height="43" viewBox="-2 -2 20 20" fill-rule="evenodd" clip-rule="evenodd" stroke-linejoin="round" stroke-miterlimit="1.414" id="smile-ok-white" x="105"><g fill="#fff"><path d="M8 0c4.415 0 8 3.585 8 8s-3.585 8-8 8-8-3.585-8-8 3.585-8 8-8zm0 1.2c3.753 0 6.8 3.047 6.8 6.8 0 3.753-3.047 6.8-6.8 6.8A6.803 6.803 0 0 1 1.2 8c0-3.753 3.047-6.8 6.8-6.8z"/><path d="M4.374 10.198a3.999 3.999 0 0 0 7.252 0l-1.088-.507a2.799 2.799 0 0 1-5.076 0l-1.088.507z"/><circle cx="6.129" cy="6.005" r=".995"/><circle cx="9.871" cy="6.005" r=".995"/></g></svg><svg viewBox="-2 -2 31 31" fill-rule="evenodd" clip-rule="evenodd" stroke-linecap="round" stroke-linejoin="round" stroke-miterlimit="1.414" width="31" height="31" id="sort" y="183"><path fill="none" stroke="#d8d8d8" d="M.866.866h25v25h-25z"/><path d="M18.416 6.548a.5.5 0 0 1 .5.5v10h.831a.568.568 0 1 1 .419.954l-1.83 1.997a.569.569 0 0 1-.84 0l-1.83-1.997a.568.568 0 0 1 .42-.954h.83v-10a.5.5 0 0 1 .5-.5h1zm-4.5 6a.5.5 0 0 1 .5.5v1a.5.5 0 0 1-.5.5h-7a.5.5 0 0 1-.5-.5v-1a.5.5 0 0 1 .5-.5h7zm0-3a.5.5 0 0 1 .5.5v1a.5.5 0 0 1-.5.5h-5a.5.5 0 0 1-.5-.5v-1a.5.5 0 0 1 .5-.5h5zm0-3a.5.5 0 0 1 .5.5v1a.5.5 0 0 1-.5.5h-3a.5.5 0 0 1-.5-.5v-1a.5.5 0 0 1 .5-.5h3z" fill="#6f7783"/></svg><svg viewBox="-2 -2 17 17" fill-rule="evenodd" clip-rule="evenodd" stroke-linejoin="round" stroke-miterlimit="1.414" width="17" height="17" id="tutorial-link" x="241" y="187"><path d="M6.5 0C10.087 0 13 2.913 13 6.5S10.087 13 6.5 13A6.504 6.504 0 0 1 0 6.5C0 2.913 2.913 0 6.5 0zm0 1.625A4.877 4.877 0 0 1 11.375 6.5 4.877 4.877 0 0 1 6.5 11.375 4.877 4.877 0 0 1 1.625 6.5 4.877 4.877 0 0 1 6.5 1.625z" fill="#535c69"/><path d="M6.5 3C8.432 3 10 4.568 10 6.5S8.432 10 6.5 10A3.501 3.501 0 0 1 3 6.5C3 4.568 4.568 3 6.5 3zm0 1.225a2.276 2.276 0 1 1-.001 4.551A2.276 2.276 0 0 1 6.5 4.225z" fill="#535c69"/><path d="M2.691 2.25l2 2M8.441 8.5l2.25 2.25M10.691 2.25L8.441 4.5M4.441 8.25l-2.25 2.25" fill="none" stroke-width="2" stroke="#535c69"/></svg><svg preserveAspectRatio="xMidYMid" width="42" height="41" viewBox="-2 -2 42 41" id="tutorial-next" x="84" y="105"><defs><style>.decls-2{fill:#dbdbdb}</style></defs><path d="M19.469 37h-1C8.884 37 1.003 29.711.063 20.374H19.57l-2.425 2.425a1.876 1.876 0 0 0 2.651 2.652l5.626-5.626a1.873 1.873 0 0 0 0-2.651l-5.626-5.626a1.875 1.875 0 0 0-2.651 2.651l2.425 2.425H.063C1.004 7.288 8.885 0 18.469 0h1c10.217 0 18.5 8.283 18.5 18.5S29.686 37 19.469 37zM.061 20.325l.002.049H.006c.017-.016.038-.032.055-.049zm-.057-3.701h.059l-.002.051-.057-.051z" id="depath-1" class="decls-2" fill-rule="evenodd"/></svg><svg preserveAspectRatio="xMidYMid" width="42" height="41" viewBox="-2 -2 42 41" id="tutorial-next-hover" x="42" y="105"><defs><style>.dfcls-2{fill:#39c6f7}</style></defs><path d="M19.469 37h-1C8.884 37 1.003 29.711.063 20.374H19.57l-2.425 2.425a1.876 1.876 0 0 0 2.651 2.652l5.626-5.626a1.873 1.873 0 0 0 0-2.651l-5.626-5.626a1.875 1.875 0 0 0-2.651 2.651l2.425 2.425H.063C1.004 7.288 8.885 0 18.469 0h1c10.217 0 18.5 8.283 18.5 18.5S29.686 37 19.469 37zM.061 20.325l.002.049H.006c.017-.016.038-.032.055-.049zm-.057-3.701h.059l-.002.051-.057-.051z" id="dfpath-1" class="dfcls-2" fill-rule="evenodd"/></svg><svg preserveAspectRatio="xMidYMid" width="42" height="41" viewBox="-2 -2 42 41" id="tutorial-prev" x="148"><defs id="dgdefs3513"><style id="dgstyle3515">.dgcls-2{fill:#dbdbdb}</style></defs><path d="M18.504 37h1c9.585 0 17.466-7.289 18.406-16.626H18.403l2.425 2.425a1.876 1.876 0 0 1-2.651 2.652l-5.626-5.626a1.873 1.873 0 0 1 0-2.651l5.626-5.626a1.875 1.875 0 0 1 2.651 2.651l-2.425 2.425H37.91C36.969 7.288 29.088 0 19.504 0h-1C8.287 0 .004 8.283.004 18.5S8.287 37 18.504 37zm19.408-16.675l-.002.049h.057c-.017-.016-.038-.032-.055-.049zm.057-3.701h-.059l.002.051.057-.051z" id="dgpath-1" class="dgcls-2" fill-rule="evenodd"/></svg><svg preserveAspectRatio="xMidYMid" width="42" height="41" viewBox="-2 -2 42 41" id="tutorial-prev-hover" y="105"><defs id="dhdefs3513"><style id="dhstyle3515">.dhcls-2{fill:#39c6f7}</style></defs><path d="M18.504 37h1c9.585 0 17.466-7.289 18.406-16.626H18.403l2.425 2.425a1.876 1.876 0 0 1-2.651 2.652l-5.626-5.626a1.873 1.873 0 0 1 0-2.651l5.626-5.626a1.875 1.875 0 0 1 2.651 2.651l-2.425 2.425H37.91C36.969 7.288 29.088 0 19.504 0h-1C8.287 0 .004 8.283.004 18.5S8.287 37 18.504 37zm19.408-16.675l-.002.049h.057c-.017-.016-.038-.032-.055-.049zm.057-3.701h-.059l.002.051.057-.051z" id="dhpath-1" class="dhcls-2" fill-rule="evenodd"/></svg></svg>