<?xml version="1.0" encoding="UTF-8" standalone="no"?><!DOCTYPE svg PUBLIC "-//W3C//DTD SVG 1.1//EN" "http://www.w3.org/Graphics/SVG/1.1/DTD/svg11.dtd"><svg width="171" height="136" viewBox="0 0 171 136" xmlns="http://www.w3.org/2000/svg" xmlns:xlink="http://www.w3.org/1999/xlink"><svg width="14" height="14" viewBox="-2 -2 19 19" fill-rule="evenodd" clip-rule="evenodd" stroke-linejoin="round" stroke-miterlimit="1.414" id="clear" x="85" y="52" xmlns="http://www.w3.org/2000/svg"><path d="M6.378 7.401L1.19 2.215a.773.773 0 0 1 1.092-1.092L7.47 6.31l5.187-5.187a.772.772 0 0 1 1.092 1.092L8.562 7.401l5.186 5.187a.771.771 0 1 1-1.092 1.092L7.47 8.493 2.283 13.68a.773.773 0 0 1-1.092-1.092z" fill="#fff"/></svg><svg width="30" height="30" viewBox="-2 -2 28 28" fill-rule="evenodd" clip-rule="evenodd" stroke-linejoin="round" stroke-miterlimit="1.414" id="close" x="139" y="60" xmlns="http://www.w3.org/2000/svg"><path d="M12 0c6.623 0 12 5.377 12 12s-5.377 12-12 12S0 18.623 0 12 5.377 0 12 0zm0 1.492c5.799 0 10.508 4.709 10.508 10.508 0 5.799-4.709 10.508-10.508 10.508-5.799 0-10.508-4.709-10.508-10.508C1.492 6.201 6.201 1.492 12 1.492zM10.908 12L5.721 6.814a.773.773 0 0 1 1.092-1.092L12 10.908l5.187-5.187a.772.772 0 0 1 1.092 1.092L13.092 12l5.186 5.187a.771.771 0 1 1-1.092 1.092L12 13.092l-5.187 5.187a.773.773 0 0 1-1.092-1.092L10.908 12z" fill="#fff"/></svg><svg height="20" viewBox="-2 -2 28 28" width="20" id="copy" x="65" y="52" xmlns="http://www.w3.org/2000/svg"><rect fill="none" height="13" rx="2" ry="2" stroke="#959ba3" stroke-linecap="round" stroke-linejoin="round" stroke-width="2" width="13" x="9" y="9"/><path d="M5 15H4a2 2 0 0 1-2-2V4a2 2 0 0 1 2-2h9a2 2 0 0 1 2 2v1" fill="none" stroke="#959ba3" stroke-linecap="round" stroke-linejoin="round" stroke-width="2"/></svg><svg width="48" height="48" viewBox="-2 -2 28 28" fill-rule="evenodd" clip-rule="evenodd" stroke-linejoin="round" stroke-miterlimit="1.414" id="crm" x="51" xmlns="http://www.w3.org/2000/svg"><path d="M2.111 5.063a1.116 1.116 0 0 1-.379-.838V2.85c0-.617.501-1.118 1.118-1.118h17.764c.617 0 1.118.501 1.118 1.118v1.376c0 .32-.137.625-.378.837l-6.613 5.844c-.24.212-.377.517-.377.838v7.896a1.117 1.117 0 0 1-1.739.93L9.598 18.55a1.117 1.117 0 0 1-.498-.93v-5.891c0-.321-.137-.626-.378-.839L2.111 5.063z" fill="none" stroke-width="2" stroke="#fff"/></svg><svg width="51" height="52" viewBox="-2 -2 51 51" fill-rule="evenodd" clip-rule="evenodd" stroke-linejoin="round" stroke-miterlimit="1.414" id="desktop" xmlns="http://www.w3.org/2000/svg"><path d="M37.779 11.811H9.029h31.533v10.202H14.593l1.855 10.202h12.984l3.232-10.202h10.68v21.331H3.464V22.013h2.782V11.811h2.783V3.464h28.75v8.347zM14.593 22.013H6.246h8.347z" fill="none" stroke-width="4" stroke="#fff"/></svg><svg width="32" height="36" viewBox="-2 -2 34 39" fill-rule="evenodd" clip-rule="evenodd" stroke-linejoin="round" stroke-miterlimit="1.414" id="docs" x="99" y="35" xmlns="http://www.w3.org/2000/svg"><path d="M13.658 4.232H2.598v28h24v-28h-4" fill="none" stroke-width="3" stroke="#fff"/><path d="M22.598 26.232v2h-16v-2h16zm-16-3.6h16v2h-16v-2zm0-3.6h16v2h-16v-2zm0-3.6h6v2h-6v-2zm0-3.6h6v2h-6v-2zm0-3.6h6v2h-6v-2z" fill="#fff"/><path d="M20.598 5.732v-1.5a2.5 2.5 0 1 0-5 0v9a1.5 1.5 0 0 0 3 0v-5.5" fill="none" stroke-width="2" stroke="#fff"/></svg><svg width="41" height="28" viewBox="-2 -2 41 28" fill-rule="evenodd" clip-rule="evenodd" stroke-linejoin="round" stroke-miterlimit="1.414" id="launchpad" y="52" xmlns="http://www.w3.org/2000/svg"><path d="M25 0c6.623 0 12 5.377 12 12s-5.377 12-12 12-12-5.377-12-12S18.377 0 25 0zm0 3c4.967 0 9 4.033 9 9s-4.033 9-9 9-9-4.033-9-9 4.033-9 9-9zM12 21H2a2 2 0 0 1 0-4h8.705a17.924 17.924 0 0 0 1.684 3.962A1.997 1.997 0 0 1 12 21zm18-9l-8 5V7l8 5zm-19.827 2.5H2a2 2 0 0 1 0-4h8.062a18.164 18.164 0 0 0 .111 4zm.274-6.5H2a2 2 0 0 1 0-4h9.874a17.84 17.84 0 0 0-1.427 4z" fill="#535c69"/></svg><svg width="32" height="36" viewBox="-2 -2 34 36" fill-rule="evenodd" clip-rule="evenodd" stroke-linejoin="round" stroke-miterlimit="1.414" id="notify" y="80" xmlns="http://www.w3.org/2000/svg"><path d="M14.985 1.739c1.468-.069 8.339.177 8.92 12.235.327 6.784 4.532 9.569 4.327 9.671-6.78 3.357-19.714 3.357-26.493 0-.205-.102 4-2.887 4.327-9.671.581-12.058 7.452-12.304 8.919-12.235z" fill="none" stroke-width="2" stroke="#fff"/><path d="M9.577 26.095a5.408 5.408 0 0 0 10.816 0h-1.352a4.056 4.056 0 0 1-8.112 0H9.577z" fill="#fff"/></svg><svg width="31" height="28" viewBox="-2 -2 21 20" fill-rule="evenodd" clip-rule="evenodd" stroke-linejoin="round" stroke-miterlimit="1.414" id="plane" x="139" y="32" xmlns="http://www.w3.org/2000/svg"><g fill="none" stroke-width=".5" stroke="#fff"><path d="M16.232.433L.433 6.923l3.299 2.01 1 5 2-3.5 5.416 4.632L16.232.433zM3.732 8.933l12.5-8.5-12.5 8.5zM6.732 10.433l9.5-10-9.5 10zM4.732 13.933l2.5-3-2.5 3z"/></g></svg><svg width="25" height="25" viewBox="-2 -2 27 27" fill-rule="evenodd" clip-rule="evenodd" stroke-linejoin="round" stroke-miterlimit="1.414" id="search" x="139" y="90" xmlns="http://www.w3.org/2000/svg"><path d="M14.213 16.335c-3.513 2.502-8.428 2.178-11.579-.973-3.512-3.512-3.512-9.215 0-12.728 3.513-3.512 9.216-3.512 12.728 0 3.151 3.151 3.475 8.066.973 11.579l6.285 6.286a.75.75 0 0 1 0 1.061l-1.06 1.06a.75.75 0 0 1-1.061 0l-6.286-6.285zm-.442-12.11a6.754 6.754 0 0 1 0 9.546 6.754 6.754 0 0 1-9.546 0 6.754 6.754 0 0 1 0-9.546 6.754 6.754 0 0 1 9.546 0z" fill="#fff"/></svg><svg width="33" height="33" viewBox="-2 -2 34 34" fill-rule="evenodd" clip-rule="evenodd" stroke-linejoin="round" stroke-miterlimit="1.414" id="settings" x="99" y="80" xmlns="http://www.w3.org/2000/svg"><path d="M16.359 2.728a12.015 12.015 0 0 0-3.522 0l-.523 1.929a10.211 10.211 0 0 0-3.131 1.297L7.45 4.96a11.995 11.995 0 0 0-2.49 2.49l.994 1.733a10.211 10.211 0 0 0-1.297 3.131l-1.929.523a12.015 12.015 0 0 0 0 3.522l1.929.523a10.211 10.211 0 0 0 1.297 3.131l-.994 1.733a12 12 0 0 0 2.49 2.491l1.733-.995a10.211 10.211 0 0 0 3.131 1.297l.523 1.929c1.168.173 2.354.173 3.522 0l.523-1.929a10.211 10.211 0 0 0 3.131-1.297l1.733.995a12.004 12.004 0 0 0 2.491-2.491l-.995-1.733a10.211 10.211 0 0 0 1.297-3.131l1.929-.523a12.015 12.015 0 0 0 0-3.522l-1.929-.523a10.211 10.211 0 0 0-1.297-3.131l.995-1.733a12 12 0 0 0-2.491-2.49l-1.733.994a10.211 10.211 0 0 0-3.131-1.297l-.523-1.929zm-1.761 7.747a4.124 4.124 0 0 1 4.123 4.123 4.124 4.124 0 0 1-4.123 4.123 4.124 4.124 0 0 1-4.123-4.123 4.124 4.124 0 0 1 4.123-4.123z" fill="none" stroke-width="3" stroke="#fff"/></svg><svg width="33" height="33" viewBox="-2 -2 34 34" fill-rule="evenodd" clip-rule="evenodd" stroke-linejoin="round" stroke-miterlimit="1.414" id="settings-big" x="66" y="80" xmlns="http://www.w3.org/2000/svg"><path d="M16.359 2.728a12.015 12.015 0 0 0-3.522 0l-.523 1.929a10.211 10.211 0 0 0-3.131 1.297L7.45 4.96a11.995 11.995 0 0 0-2.49 2.49l.994 1.733a10.211 10.211 0 0 0-1.297 3.131l-1.929.523a12.015 12.015 0 0 0 0 3.522l1.929.523a10.211 10.211 0 0 0 1.297 3.131l-.994 1.733a12 12 0 0 0 2.49 2.491l1.733-.995a10.211 10.211 0 0 0 3.131 1.297l.523 1.929c1.168.173 2.354.173 3.522 0l.523-1.929a10.211 10.211 0 0 0 3.131-1.297l1.733.995a12.004 12.004 0 0 0 2.491-2.491l-.995-1.733a10.211 10.211 0 0 0 1.297-3.131l1.929-.523a12.015 12.015 0 0 0 0-3.522l-1.929-.523a10.211 10.211 0 0 0-1.297-3.131l.995-1.733a12 12 0 0 0-2.491-2.49l-1.733.994a10.211 10.211 0 0 0-3.131-1.297l-.523-1.929zm-1.761 7.747a4.124 4.124 0 0 1 4.123 4.123 4.124 4.124 0 0 1-4.123 4.123 4.124 4.124 0 0 1-4.123-4.123 4.124 4.124 0 0 1 4.123-4.123z" fill="none" stroke-width="3" stroke="#535c69"/></svg><svg width="24" height="24" viewBox="-2 -2 34 34" fill-rule="evenodd" clip-rule="evenodd" stroke-linejoin="round" stroke-miterlimit="1.414" id="settings-sm" x="41" y="52" xmlns="http://www.w3.org/2000/svg"><path d="M16.359 2.728a12.015 12.015 0 0 0-3.522 0l-.523 1.929a10.211 10.211 0 0 0-3.131 1.297L7.45 4.96a11.995 11.995 0 0 0-2.49 2.49l.994 1.733a10.211 10.211 0 0 0-1.297 3.131l-1.929.523a12.015 12.015 0 0 0 0 3.522l1.929.523a10.211 10.211 0 0 0 1.297 3.131l-.994 1.733a12 12 0 0 0 2.49 2.491l1.733-.995a10.211 10.211 0 0 0 3.131 1.297l.523 1.929c1.168.173 2.354.173 3.522 0l.523-1.929a10.211 10.211 0 0 0 3.131-1.297l1.733.995a12.004 12.004 0 0 0 2.491-2.491l-.995-1.733a10.211 10.211 0 0 0 1.297-3.131l1.929-.523a12.015 12.015 0 0 0 0-3.522l-1.929-.523a10.211 10.211 0 0 0-1.297-3.131l.995-1.733a12 12 0 0 0-2.491-2.49l-1.733.994a10.211 10.211 0 0 0-3.131-1.297l-.523-1.929zm-1.761 7.747a4.124 4.124 0 0 1 4.123 4.123 4.124 4.124 0 0 1-4.123 4.123 4.124 4.124 0 0 1-4.123-4.123 4.124 4.124 0 0 1 4.123-4.123z" fill="none" stroke-width="3" stroke="#fff"/></svg><svg width="34" height="33" viewBox="-2 -2 20 20" fill-rule="evenodd" clip-rule="evenodd" stroke-linejoin="round" stroke-miterlimit="1.414" id="smile-sad" x="32" y="80" xmlns="http://www.w3.org/2000/svg"><g fill="#fff"><path d="M8 0c4.415 0 8 3.585 8 8s-3.585 8-8 8-8-3.585-8-8 3.585-8 8-8zm0 1.2c3.753 0 6.8 3.047 6.8 6.8 0 3.753-3.047 6.8-6.8 6.8A6.803 6.803 0 0 1 1.2 8c0-3.753 3.047-6.8 6.8-6.8z"/><path d="M4.374 12.003a4 4 0 0 1 7.252 0l-1.088.506a2.799 2.799 0 0 0-5.076 0l-1.088-.506z"/><circle cx="6.129" cy="6.005" r=".995"/><circle cx="9.871" cy="6.005" r=".995"/></g></svg><svg width="32" height="32" viewBox="-2 -2 31 31" fill-rule="evenodd" clip-rule="evenodd" stroke-linejoin="round" stroke-miterlimit="1.414" id="support" x="139" xmlns="http://www.w3.org/2000/svg"><path d="M13.5 0C20.951 0 27 6.049 27 13.5S20.951 27 13.5 27 0 20.951 0 13.5 6.049 0 13.5 0zm0 3.375c5.588 0 10.125 4.537 10.125 10.125S19.088 23.625 13.5 23.625 3.375 19.088 3.375 13.5 7.912 3.375 13.5 3.375z" fill="#fff"/><path d="M13.5 6.231a7.272 7.272 0 0 1 7.269 7.269 7.272 7.272 0 0 1-7.269 7.269A7.272 7.272 0 0 1 6.231 13.5 7.272 7.272 0 0 1 13.5 6.231zm0 2.544a4.727 4.727 0 0 1 4.725 4.725 4.727 4.727 0 0 1-4.725 4.725A4.727 4.727 0 0 1 8.775 13.5 4.727 4.727 0 0 1 13.5 8.775z" fill="#fff"/><path d="M5.59 4.673l4.154 4.154M17.532 17.654l4.673 4.673M22.205 4.673l-4.673 4.673M9.225 17.135l-4.673 4.673" fill="none" stroke-width="2" stroke="#fff"/></svg><svg width="20" height="20" viewBox="-2 -2 20 20" fill-rule="evenodd" clip-rule="evenodd" stroke-linejoin="round" stroke-miterlimit="1.414" id="support-board" y="116" xmlns="http://www.w3.org/2000/svg"><path fill="#ffcf00" d="M0 0h16v16H0z"/><path d="M8.734 3.054a5.015 5.015 0 0 0-1.468 0l-.164 1.359a3.685 3.685 0 0 0-1.003.415l-1.077-.844a5.007 5.007 0 0 0-1.038 1.038l.844 1.077c-.187.312-.327.65-.415 1.003l-1.359.164a5.015 5.015 0 0 0 0 1.468l1.359.164c.088.353.228.691.415 1.003l-.844 1.077c.293.395.643.745 1.038 1.038l1.077-.844c.312.187.65.327 1.003.415l.164 1.359c.487.072.981.072 1.468 0l.164-1.359a3.685 3.685 0 0 0 1.003-.415l1.077.844a5.007 5.007 0 0 0 1.038-1.038l-.844-1.077c.187-.312.327-.65.415-1.003l1.359-.164a5.015 5.015 0 0 0 0-1.468l-1.359-.164a3.685 3.685 0 0 0-.415-1.003l.844-1.077a5.007 5.007 0 0 0-1.038-1.038l-1.077.844a3.685 3.685 0 0 0-1.003-.415l-.164-1.359zM8 5.583a2.418 2.418 0 0 1 0 4.834 2.418 2.418 0 0 1 0-4.834z"/></svg><svg viewBox="-2 -2 40 35" fill-rule="evenodd" clip-rule="evenodd" stroke-linejoin="round" stroke-miterlimit="1.414" width="40" height="35" id="to-b24" x="99" xmlns="http://www.w3.org/2000/svg"><path d="M30.5 0C33.536 0 36 2.464 36 5.5S33.536 11 30.5 11A5.502 5.502 0 0 1 25 5.5C25 2.464 27.464 0 30.5 0zm.75 4.25V2.473a.75.75 0 0 0-1.5 0V4.75c0 .043.004.084.01.125a.75.75 0 0 0 .74.875h2.277a.75.75 0 0 0 0-1.5H31.25z" fill="#fff"/><g fill="#fff" fill-rule="nonzero"><path d="M11.825 27.297v3.297H0a8.866 8.866 0 0 1 1.152-3.543c.641-1.116 1.905-2.596 3.794-4.44 1.521-1.491 2.453-2.502 2.797-3.032.464-.733.697-1.457.697-2.173 0-.791-.202-1.4-.607-1.825-.404-.425-.962-.638-1.674-.638-.705 0-1.265.223-1.681.67-.416.446-.656 1.187-.72 2.223l-3.362-.354c.2-1.954.829-3.356 1.885-4.206C3.337 12.425 4.658 12 6.243 12c1.736 0 3.101.493 4.093 1.478.993.985 1.489 2.21 1.489 3.676a6.7 6.7 0 0 1-.426 2.381c-.284.753-.734 1.543-1.351 2.368-.408.548-1.144 1.335-2.209 2.362-1.064 1.028-1.738 1.71-2.023 2.047a6.083 6.083 0 0 0-.69.985h6.699zM20.721 30.594v-3.727h-7.203V23.76L21.153 12h2.833v11.747h2.185v3.12h-2.185v3.727h-3.265zm0-6.847v-6.328l-4.046 6.328h4.046z"/></g></svg></svg>