<?xml version="1.0" encoding="UTF-8" standalone="no"?>
<svg
   xmlns:dc="http://purl.org/dc/elements/1.1/"
   xmlns:cc="http://creativecommons.org/ns#"
   xmlns:rdf="http://www.w3.org/1999/02/22-rdf-syntax-ns#"
   xmlns:svg="http://www.w3.org/2000/svg"
   xmlns="http://www.w3.org/2000/svg"
   xmlns:sodipodi="http://sodipodi.sourceforge.net/DTD/sodipodi-0.dtd"
   xmlns:inkscape="http://www.inkscape.org/namespaces/inkscape"
   width="10"
   height="10"
   viewBox="0 0 15 15"
   version="1.1"
   xml:space="preserve"
   style="fill-rule:evenodd;clip-rule:evenodd;stroke-linejoin:round;stroke-miterlimit:1.41421;"
   id="svg3952"
   inkscape:version="0.91 r"
   sodipodi:docname="clear.svg"><metadata
     id="metadata3960"><rdf:RDF><cc:Work
         rdf:about=""><dc:format>image/svg+xml</dc:format><dc:type
           rdf:resource="http://purl.org/dc/dcmitype/StillImage" /></cc:Work></rdf:RDF></metadata><defs
     id="defs3958" /><sodipodi:namedview
     pagecolor="#ffffff"
     bordercolor="#666666"
     borderopacity="1"
     objecttolerance="10"
     gridtolerance="10"
     guidetolerance="10"
     inkscape:pageopacity="0"
     inkscape:pageshadow="2"
     inkscape:window-width="1920"
     inkscape:window-height="1028"
     id="namedview3956"
     showgrid="false"
     inkscape:zoom="51.346831"
     inkscape:cx="3.6986472"
     inkscape:cy="4.8149712"
     inkscape:window-x="0"
     inkscape:window-y="0"
     inkscape:window-maximized="1"
     inkscape:current-layer="svg3952" /><path
     d="m 6.3776852,7.4012346 -5.187,-5.186 c -0.30099998,-0.302 -0.30099998,-0.791 0,-1.092 0.302,-0.30199995 0.791,-0.30199995 1.092,0 l 5.187,5.186 5.1869998,-5.187 c 0.301,-0.30099995 0.789,-0.30099995 1.091,0 0,10e-4 0,10e-4 10e-4,10e-4 0.301,0.302 0.301,0.79 0,1.091 l -5.1869998,5.187 5.1859998,5.1869994 c 0.302,0.301 0.302,0.79 0,1.092 -0.301,0.301 -0.79,0.301 -1.092,0 l -5.1859998,-5.1869994 -5.187,5.1869994 c -0.301,0.301 -0.79,0.301 -1.092,0 -0.30099998,-0.302 -0.30099998,-0.791 0,-1.092 z"
     style="fill:#fff"
     id="path3954"
     inkscape:connector-curvature="0"
     sodipodi:nodetypes="ccsccsccsccsccscsc" /></svg>
