<?xml version="1.0" encoding="UTF-8" standalone="no"?><!DOCTYPE svg PUBLIC "-//W3C//DTD SVG 1.1//EN" "http://www.w3.org/Graphics/SVG/1.1/DTD/svg11.dtd"><svg width="26" height="26" viewBox="0 0 24 24" version="1.1" xmlns="http://www.w3.org/2000/svg" xmlns:xlink="http://www.w3.org/1999/xlink" xml:space="preserve" style="fill-rule:evenodd;clip-rule:evenodd;stroke-linejoin:round;stroke-miterlimit:1.41421;"><path d="M12,0c6.623,0 12,5.377 12,12c0,6.623 -5.377,12 -12,12c-6.623,0 -12,-5.377 -12,-12c0,-6.623 5.377,-12 12,-12ZM12,1.492c5.799,0 10.508,4.709 10.508,10.508c0,5.799 -4.709,10.508 -10.508,10.508c-5.799,0 -10.508,-4.709 -10.508,-10.508c0,-5.799 4.709,-10.508 10.508,-10.508ZM10.908,12l-5.187,-5.186c-0.301,-0.302 -0.301,-0.791 0,-1.092c0.302,-0.302 0.791,-0.302 1.092,0l5.187,5.186l5.187,-5.187c0.301,-0.301 0.789,-0.301 1.091,0c0,0.001 0,0.001 0.001,0.001c0.301,0.302 0.301,0.79 0,1.091l-5.187,5.187l5.186,5.187c0.302,0.301 0.302,0.79 0,1.092c-0.301,0.301 -0.79,0.301 -1.092,0l-5.186,-5.187l-5.187,5.187c-0.301,0.301 -0.79,0.301 -1.092,0c-0.301,-0.302 -0.301,-0.791 0,-1.092l5.187,-5.187Z" style="fill:#fff;"/></svg>
