<?xml version="1.0" encoding="UTF-8" standalone="no"?><!DOCTYPE svg PUBLIC "-//W3C//DTD SVG 1.1//EN" "http://www.w3.org/Graphics/SVG/1.1/DTD/svg11.dtd"><svg width="44" height="44" viewBox="0 0 24 24" version="1.1" xmlns="http://www.w3.org/2000/svg" xmlns:xlink="http://www.w3.org/1999/xlink" xml:space="preserve" style="fill-rule:evenodd;clip-rule:evenodd;stroke-linejoin:round;stroke-miterlimit:1.41421;"><path d="M2.111,5.063c-0.241,-0.212 -0.379,-0.517 -0.379,-0.838c0,-0.376 0,-0.902 0,-1.375c0,-0.617 0.501,-1.118 1.118,-1.118c3.506,0 14.258,0 17.764,0c0.617,0 1.118,0.501 1.118,1.118c0,0.473 0,1 0,1.376c0,0.32 -0.137,0.625 -0.378,0.837c-1.265,1.119 -5.347,4.726 -6.613,5.844c-0.24,0.212 -0.377,0.517 -0.377,0.838c0,1.401 0,5.404 0,7.896c0,0.413 -0.227,0.792 -0.591,0.986c-0.364,0.195 -0.805,0.173 -1.148,-0.056c-1.06,-0.707 -2.339,-1.561 -3.027,-2.021c-0.311,-0.207 -0.498,-0.556 -0.498,-0.93c0,-1.353 0,-4.631 0,-5.891c0,-0.321 -0.137,-0.626 -0.378,-0.839c-1.267,-1.116 -5.345,-4.71 -6.611,-5.827Z" style="fill:none;stroke-width:2px;stroke:#fff;"/></svg>