<?xml version="1.0" encoding="UTF-8" standalone="no"?><!DOCTYPE svg PUBLIC "-//W3C//DTD SVG 1.1//EN" "http://www.w3.org/Graphics/SVG/1.1/DTD/svg11.dtd"><svg width="28" height="32" viewBox="0 0 30 35" version="1.1" xmlns="http://www.w3.org/2000/svg" xmlns:xlink="http://www.w3.org/1999/xlink" xml:space="preserve" style="fill-rule:evenodd;clip-rule:evenodd;stroke-linejoin:round;stroke-miterlimit:1.41421;"><g><path d="M13.658,4.232l-11.06,0l0,28l24,0l0,-28l-4,0" style="fill:none;stroke-width:3px;stroke:#fff;"/><path d="M22.598,26.232l0,2l-16,0l0,-2l16,0ZM6.598,22.632l16,0l0,2l-16,0l0,-2ZM6.598,19.032l16,0l0,2l-16,0l0,-2ZM6.598,15.432l6,0l0,2l-6,0l0,-2ZM6.598,11.832l6,0l0,2l-6,0l0,-2ZM6.598,8.232l6,0l0,2l-6,0l0,-2Z" style="fill:#fff;"/><path d="M20.598,5.732c0,0 0,-0.692 0,-1.5c0,-1.381 -1.119,-2.5 -2.5,-2.5c-0.663,0 -1.299,0.263 -1.768,0.732c-0.469,0.469 -0.732,1.105 -0.732,1.768c0,2.665 0,6.798 0,9c0,0.828 0.672,1.5 1.5,1.5c0.398,0 0.779,-0.158 1.061,-0.439c0.281,-0.282 0.439,-0.663 0.439,-1.061c0,-2.057 0,-5.5 0,-5.5" style="fill:none;stroke-width:2px;stroke:#fff;"/></g></svg>
