<?xml version="1.0" encoding="UTF-8" standalone="no"?><!DOCTYPE svg PUBLIC "-//W3C//DTD SVG 1.1//EN" "http://www.w3.org/Graphics/SVG/1.1/DTD/svg11.dtd"><svg width="37" height="24" viewBox="0 0 37 24" version="1.1" xmlns="http://www.w3.org/2000/svg" xmlns:xlink="http://www.w3.org/1999/xlink" xml:space="preserve" style="fill-rule:evenodd;clip-rule:evenodd;stroke-linejoin:round;stroke-miterlimit:1.41421;"><path d="M25,0c6.623,0 12,5.377 12,12c0,6.623 -5.377,12 -12,12c-6.623,0 -12,-5.377 -12,-12c0,-6.623 5.377,-12 12,-12ZM25,3c4.967,0 9,4.033 9,9c0,4.967 -4.033,9 -9,9c-4.967,0 -9,-4.033 -9,-9c0,-4.967 4.033,-9 9,-9ZM12,21l-10,0c-1.104,0 -2,-0.896 -2,-2c0,-1.104 0.896,-2 2,-2l8.705,0c0.404,1.398 0.973,2.726 1.684,3.962c-0.126,0.025 -0.256,0.038 -0.389,0.038ZM30,12l-8,5l0,-10l8,5ZM10.173,14.5l-8.173,0c-1.104,0 -2,-0.896 -2,-2c0,-1.104 0.896,-2 2,-2l8.062,0c-0.041,0.495 -0.062,0.995 -0.062,1.5c0,0.848 0.059,1.683 0.173,2.5ZM10.447,8l-8.447,0c-1.104,0 -2,-0.896 -2,-2c0,-1.104 0.896,-2 2,-2l9.874,0c-0.626,1.257 -1.108,2.597 -1.427,4Z" style="fill:#535c69;"/></svg>
