<?xml version="1.0" encoding="UTF-8" standalone="no"?><!DOCTYPE svg PUBLIC "-//W3C//DTD SVG 1.1//EN" "http://www.w3.org/Graphics/SVG/1.1/DTD/svg11.dtd"><svg width="28" height="32" viewBox="0 0 30 32" version="1.1" xmlns="http://www.w3.org/2000/svg" xmlns:xlink="http://www.w3.org/1999/xlink" xml:space="preserve" style="fill-rule:evenodd;clip-rule:evenodd;stroke-linejoin:round;stroke-miterlimit:1.41421;"><g><path d="M14.985,1.739c1.468,-0.069 8.339,0.177 8.92,12.235c0.327,6.784 4.532,9.569 4.327,9.671c-6.78,3.357 -19.714,3.357 -26.493,0c-0.205,-0.102 4,-2.887 4.327,-9.671c0.581,-12.058 7.452,-12.304 8.919,-12.235Z" style="fill:none;stroke-width:2px;stroke:#fff;"/><path d="M9.577,26.095c0,2.987 2.422,5.408 5.408,5.408c2.987,0 5.408,-2.421 5.408,-5.408l-1.352,0c0,2.24 -1.816,4.056 -4.056,4.056c-2.24,0 -4.056,-1.816 -4.056,-4.056l-1.352,0Z" style="fill:#fff;"/></g></svg>
