<?xml version="1.0" encoding="UTF-8" standalone="no"?><!DOCTYPE svg PUBLIC "-//W3C//DTD SVG 1.1//EN" "http://www.w3.org/Graphics/SVG/1.1/DTD/svg11.dtd"><svg width="21" height="21" viewBox="0 0 23 23" version="1.1" xmlns="http://www.w3.org/2000/svg" xmlns:xlink="http://www.w3.org/1999/xlink" xml:space="preserve" style="fill-rule:evenodd;clip-rule:evenodd;stroke-linejoin:round;stroke-miterlimit:1.41421;"><path d="M14.213,16.335c-3.513,2.502 -8.428,2.178 -11.579,-0.973c-3.512,-3.512 -3.512,-9.215 0,-12.728c3.513,-3.512 9.216,-3.512 12.728,0c3.151,3.151 3.475,8.066 0.973,11.579l6.285,6.286c0.293,0.293 0.293,0.768 0,1.061l-1.06,1.06c-0.293,0.293 -0.768,0.293 -1.061,0l-6.286,-6.285ZM13.771,4.225c2.634,2.635 2.634,6.912 0,9.546c-2.634,2.634 -6.911,2.634 -9.546,0c-2.634,-2.634 -2.634,-6.911 0,-9.546c2.635,-2.634 6.912,-2.634 9.546,0Z" style="fill:#fff;"/></svg>
