<?xml version="1.0" encoding="UTF-8" standalone="no"?><!DOCTYPE svg PUBLIC "-//W3C//DTD SVG 1.1//EN" "http://www.w3.org/Graphics/SVG/1.1/DTD/svg11.dtd"><svg width="29" height="29" viewBox="0 0 30 30" version="1.1" xmlns="http://www.w3.org/2000/svg" xmlns:xlink="http://www.w3.org/1999/xlink" xml:space="preserve" style="fill-rule:evenodd;clip-rule:evenodd;stroke-linejoin:round;stroke-miterlimit:1.41421;"><path d="M16.359,2.728c-1.168,-0.173 -2.354,-0.173 -3.522,0l-0.523,1.929c-1.108,0.255 -2.167,0.693 -3.131,1.297l-1.733,-0.994c-0.948,0.703 -1.787,1.542 -2.49,2.49l0.994,1.733c-0.604,0.964 -1.042,2.023 -1.297,3.131l-1.929,0.523c-0.173,1.168 -0.173,2.354 0,3.522l1.929,0.523c0.255,1.108 0.693,2.167 1.297,3.131l-0.994,1.733c0.703,0.948 1.542,1.788 2.49,2.491l1.733,-0.995c0.964,0.604 2.023,1.042 3.131,1.297l0.523,1.929c1.168,0.173 2.354,0.173 3.522,0l0.523,-1.929c1.108,-0.255 2.167,-0.693 3.131,-1.297l1.733,0.995c0.948,-0.703 1.788,-1.543 2.491,-2.491l-0.995,-1.733c0.604,-0.964 1.042,-2.023 1.297,-3.131l1.929,-0.523c0.173,-1.168 0.173,-2.354 0,-3.522l-1.929,-0.523c-0.255,-1.108 -0.693,-2.167 -1.297,-3.131l0.995,-1.733c-0.703,-0.948 -1.543,-1.787 -2.491,-2.49l-1.733,0.994c-0.964,-0.604 -2.023,-1.042 -3.131,-1.297l-0.523,-1.929ZM14.598,10.475c2.276,0 4.123,1.847 4.123,4.123c0,2.276 -1.847,4.123 -4.123,4.123c-2.276,0 -4.123,-1.847 -4.123,-4.123c0,-2.276 1.847,-4.123 4.123,-4.123Z" style="fill:none;stroke-width:3px;stroke:#fff;"/></svg>
