<?xml version="1.0" encoding="UTF-8" standalone="no"?><!DOCTYPE svg PUBLIC "-//W3C//DTD SVG 1.1//EN" "http://www.w3.org/Graphics/SVG/1.1/DTD/svg11.dtd"><svg width="30" height="29" viewBox="0 0 16 16" version="1.1" xmlns="http://www.w3.org/2000/svg" xmlns:xlink="http://www.w3.org/1999/xlink" xml:space="preserve" style="fill-rule:evenodd;clip-rule:evenodd;stroke-linejoin:round;stroke-miterlimit:1.41421;"><g><path d="M8,0c4.415,0 8,3.585 8,8c0,4.415 -3.585,8 -8,8c-4.415,0 -8,-3.585 -8,-8c0,-4.415 3.585,-8 8,-8ZM8,1.2c3.753,0 6.8,3.047 6.8,6.8c0,3.753 -3.047,6.8 -6.8,6.8c-3.753,0 -6.8,-3.047 -6.8,-6.8c0,-3.753 3.047,-6.8 6.8,-6.8Z" style="fill:#fff;"/><path d="M4.374,12.003c0.656,-1.41 2.071,-2.312 3.626,-2.312c1.555,0 2.97,0.902 3.626,2.312l-1.088,0.506c-0.459,-0.987 -1.449,-1.618 -2.538,-1.618c-1.089,0 -2.079,0.631 -2.538,1.618l-1.088,-0.506Z" style="fill:#fff;"/><g><circle cx="6.129" cy="6.005" r="0.995" style="fill:#fff;"/><circle cx="9.871" cy="6.005" r="0.995" style="fill:#fff;"/></g></g></svg>
