<?xml version="1.0" encoding="UTF-8" standalone="no"?><!DOCTYPE svg PUBLIC "-//W3C//DTD SVG 1.1//EN" "http://www.w3.org/Graphics/SVG/1.1/DTD/svg11.dtd"><svg width="28" height="28" viewBox="0 0 27 27" version="1.1" xmlns="http://www.w3.org/2000/svg" xmlns:xlink="http://www.w3.org/1999/xlink" xml:space="preserve" style="fill-rule:evenodd;clip-rule:evenodd;stroke-linejoin:round;stroke-miterlimit:1.41421;"><g><path d="M13.5,0c7.451,0 13.5,6.049 13.5,13.5c0,7.451 -6.049,13.5 -13.5,13.5c-7.451,0 -13.5,-6.049 -13.5,-13.5c0,-7.451 6.049,-13.5 13.5,-13.5ZM13.5,3.375c5.588,0 10.125,4.537 10.125,10.125c0,5.588 -4.537,10.125 -10.125,10.125c-5.588,0 -10.125,-4.537 -10.125,-10.125c0,-5.588 4.537,-10.125 10.125,-10.125Z" style="fill:#fff;"/><path d="M13.5,6.231c4.012,0 7.269,3.257 7.269,7.269c0,4.012 -3.257,7.269 -7.269,7.269c-4.012,0 -7.269,-3.257 -7.269,-7.269c0,-4.012 3.257,-7.269 7.269,-7.269ZM13.5,8.775c2.608,0 4.725,2.117 4.725,4.725c0,2.608 -2.117,4.725 -4.725,4.725c-2.608,0 -4.725,-2.117 -4.725,-4.725c0,-2.608 2.117,-4.725 4.725,-4.725Z" style="fill:#fff;"/><path d="M5.59,4.673l4.154,4.154" style="fill:none;stroke-width:2px;stroke:#fff;"/><path d="M17.532,17.654l4.673,4.673" style="fill:none;stroke-width:2px;stroke:#fff;"/><path d="M22.205,4.673l-4.673,4.673" style="fill:none;stroke-width:2px;stroke:#fff;"/><path d="M9.225,17.135l-4.673,4.673" style="fill:none;stroke-width:2px;stroke:#fff;"/></g></svg>
