<?xml version="1.0" encoding="UTF-8" standalone="no"?><!DOCTYPE svg PUBLIC "-//W3C//DTD SVG 1.1//EN" "http://www.w3.org/Graphics/SVG/1.1/DTD/svg11.dtd"><svg width="16" height="16" viewBox="0 0 16 16" version="1.1" xmlns="http://www.w3.org/2000/svg" xmlns:xlink="http://www.w3.org/1999/xlink" xml:space="preserve" style="fill-rule:evenodd;clip-rule:evenodd;stroke-linejoin:round;stroke-miterlimit:1.41421;"><g><rect x="0" y="0" width="16" height="16" style="fill:#ffcf00;"/><path d="M8.734,3.054c-0.487,-0.072 -0.981,-0.072 -1.468,0l-0.164,1.359c-0.353,0.088 -0.691,0.228 -1.003,0.415l-1.077,-0.844c-0.395,0.293 -0.745,0.643 -1.038,1.038l0.844,1.077c-0.187,0.312 -0.327,0.65 -0.415,1.003l-1.359,0.164c-0.072,0.487 -0.072,0.981 0,1.468l1.359,0.164c0.088,0.353 0.228,0.691 0.415,1.003l-0.844,1.077c0.293,0.395 0.643,0.745 1.038,1.038l1.077,-0.844c0.312,0.187 0.65,0.327 1.003,0.415l0.164,1.359c0.487,0.072 0.981,0.072 1.468,0l0.164,-1.359c0.353,-0.088 0.691,-0.228 1.003,-0.415l1.077,0.844c0.395,-0.293 0.745,-0.643 1.038,-1.038l-0.844,-1.077c0.187,-0.312 0.327,-0.65 0.415,-1.003l1.359,-0.164c0.072,-0.487 0.072,-0.981 0,-1.468l-1.359,-0.164c-0.088,-0.353 -0.228,-0.691 -0.415,-1.003l0.844,-1.077c-0.293,-0.395 -0.643,-0.745 -1.038,-1.038l-1.077,0.844c-0.312,-0.187 -0.65,-0.327 -1.003,-0.415l-0.164,-1.359ZM8,5.583c1.334,0 2.417,1.083 2.417,2.417c0,1.334 -1.083,2.417 -2.417,2.417c-1.334,0 -2.417,-1.083 -2.417,-2.417c0,-1.334 1.083,-2.417 2.417,-2.417Z" style="fill:#000;"/></g></svg>
