<?xml version="1.0" encoding="UTF-8" standalone="no"?><!DOCTYPE svg PUBLIC "-//W3C//DTD SVG 1.1//EN" "http://www.w3.org/Graphics/SVG/1.1/DTD/svg11.dtd"><svg width="100%" height="100%" viewBox="0 0 36 31" version="1.1" xmlns="http://www.w3.org/2000/svg" xmlns:xlink="http://www.w3.org/1999/xlink" xml:space="preserve" style="fill-rule:evenodd;clip-rule:evenodd;stroke-linejoin:round;stroke-miterlimit:1.41421;"><path d="M30.5,0c3.036,0 5.5,2.464 5.5,5.5c0,3.036 -2.464,5.5 -5.5,5.5c-3.036,0 -5.5,-2.464 -5.5,-5.5c0,-3.036 2.464,-5.5 5.5,-5.5ZM31.25,4.25l0,-1.777c0,-0.414 -0.336,-0.75 -0.75,-0.75c-0.414,0 -0.75,0.336 -0.75,0.75l0,2.277c0,0.043 0.004,0.084 0.01,0.125c-0.006,0.041 -0.01,0.082 -0.01,0.125c0,0.414 0.336,0.75 0.75,0.75l2.277,0c0.414,0 0.75,-0.336 0.75,-0.75c0,-0.414 -0.336,-0.75 -0.75,-0.75l-1.527,0Z" style="fill:#fff;"/><g><path d="M11.825,27.297l0,3.297l-11.825,0c0.128,-1.247 0.512,-2.428 1.152,-3.543c0.641,-1.116 1.905,-2.596 3.794,-4.44c1.521,-1.491 2.453,-2.502 2.797,-3.032c0.464,-0.733 0.697,-1.457 0.697,-2.173c0,-0.791 -0.202,-1.4 -0.607,-1.825c-0.404,-0.425 -0.962,-0.638 -1.674,-0.638c-0.705,0 -1.265,0.223 -1.681,0.67c-0.416,0.446 -0.656,1.187 -0.72,2.223l-3.362,-0.354c0.2,-1.954 0.829,-3.356 1.885,-4.206c1.056,-0.851 2.377,-1.276 3.962,-1.276c1.736,0 3.101,0.493 4.093,1.478c0.993,0.985 1.489,2.21 1.489,3.676c0,0.833 -0.142,1.627 -0.426,2.381c-0.284,0.753 -0.734,1.543 -1.351,2.368c-0.408,0.548 -1.144,1.335 -2.209,2.362c-1.064,1.028 -1.738,1.71 -2.023,2.047c-0.284,0.336 -0.514,0.665 -0.69,0.985l6.699,0Z" style="fill:#fff;fill-rule:nonzero;"/><path d="M20.721,30.594l0,-3.727l-7.203,0l0,-3.107l7.635,-11.76l2.833,0l0,11.747l2.185,0l0,3.12l-2.185,0l0,3.727l-3.265,0ZM20.721,23.747l0,-6.328l-4.046,6.328l4.046,0Z" style="fill:#fff;fill-rule:nonzero;"/></g></svg>
